<svg xmlns="http://www.w3.org/2000/svg" id="Layer_1" data-name="Layer 1" viewBox="0 0 50 50"><defs/><title/><path d="M8.513 25.5h9.875a3.1 3.1 0 0 0 3.058 2.608h7.108a3.1 3.1 0 0 0 3.058-2.608h9.875a4.017 4.017 0 0 0 4.013-4.013v-4.654a4.007 4.007 0 0 0-3.784-3.99 3.105 3.105 0 0 0-3.057-2.6h-7.108A3.11 3.11 0 0 0 28.5 12.82h-6.3v-1.328a.5.5 0 0 0-.43-.5l-2.047-.289 1.243-1.65a.5.5 0 0 0-.045-.654l-2.629-2.62a.5.5 0 0 0-.654-.046l-1.651 1.244L15.7 4.93a.5.5 0 0 0-.5-.43h-3.708a.5.5 0 0 0-.5.43l-.289 2.047-1.645-1.244a.5.5 0 0 0-.654.046L5.779 8.4a.5.5 0 0 0-.046.654l1.244 1.65L4.93 11a.5.5 0 0 0-.43.5v3.7a.5.5 0 0 0 .43.495l2.047.288-1.244 1.655a.5.5 0 0 0 .046.654L8.4 20.917a.5.5 0 0 0 .654.046l1.65-1.243.296 2.046a.5.5 0 0 0 .5.43h3.7a.5.5 0 0 0 .495-.43l.288-2.047 1.651 1.244a.5.5 0 0 0 .654-.046l2.625-2.625a.5.5 0 0 0 .045-.654l-1.243-1.651 2.047-.288a.5.5 0 0 0 .43-.495V13.82h6.298a3.1 3.1 0 0 0 3.061 2.636h7.108a3.1 3.1 0 0 0 3.058-2.613 3.01 3.01 0 0 1 2.783 2.99v4.654a3.017 3.017 0 0 1-3.013 3.013h-9.875a3.1 3.1 0 0 0-3.058-2.608h-7.108a3.1 3.1 0 0 0-3.058 2.608H8.513A4.017 4.017 0 0 0 4.5 28.513v4.654a4.007 4.007 0 0 0 3.784 3.99 3.105 3.105 0 0 0 3.057 2.6h7.108A3.11 3.11 0 0 0 21.5 37.18h6.142a8.958 8.958 0 1 0-.012-1h-6.12a3.1 3.1 0 0 0-3.061-2.636h-7.108a3.1 3.1 0 0 0-3.058 2.613 3.01 3.01 0 0 1-2.783-2.99v-4.654A3.017 3.017 0 0 1 8.513 25.5m4.835-8.582a3.57 3.57 0 1 1 3.57-3.57 3.574 3.574 0 0 1-3.57 3.57" class="cls-1"/><path fill="#ffba50" d="M38.659 15.456h-7.108a2.108 2.108 0 1 1 0-4.216h7.108a2.108 2.108 0 1 1 0 4.216m-17.213 7.436h7.108a2.11 2.11 0 0 1 2.105 2.076c0 .011-.006.021-.006.032s.006.021.006.032a2.11 2.11 0 0 1-2.105 2.076h-7.108a2.11 2.11 0 0 1-2.105-2.076c0-.011.006-.021.006-.032s-.006-.021-.006-.032a2.11 2.11 0 0 1 2.105-2.076M11.341 34.544h7.108a2.108 2.108 0 1 1 0 4.216h-7.108a2.108 2.108 0 0 1 0-4.216"/><circle cx="22.482" cy="25" r=".502" class="cls-1"/><circle cx="25.024" cy="25" r=".502" class="cls-1"/><circle cx="27.518" cy="25" r=".502" class="cls-1"/><circle cx="32.587" cy="13.348" r=".502" class="cls-1"/><circle cx="35.129" cy="13.348" r=".502" class="cls-1"/><circle cx="37.622" cy="13.348" r=".502" class="cls-1"/><circle cx="17.413" cy="36.652" r=".502" class="cls-1"/><circle cx="14.871" cy="36.652" r=".502" class="cls-1"/><circle cx="12.378" cy="36.652" r=".502" class="cls-1"/><path fill="#7cc05b" d="M36.557 28.615a7.943 7.943 0 1 1-7.942 7.942 7.95 7.95 0 0 1 7.942-7.942"/><path fill="#8d7f89" d="m18.74 15.115 2.46-.345v-2.843l-2.456-.346a.5.5 0 0 1-.33-.8L19.9 8.8l-2.01-2.011-1.979 1.497a.5.5 0 0 1-.8-.33L14.77 5.5h-2.844l-.345 2.456a.5.5 0 0 1-.8.33L8.8 6.793 6.793 8.8l1.493 1.981a.5.5 0 0 1-.33.8l-2.456.346v2.843l2.456.345a.5.5 0 0 1 .33.8l-1.493 1.977L8.8 19.9l1.981-1.493a.5.5 0 0 1 .8.33l.345 2.456h2.844l.345-2.456a.5.5 0 0 1 .8-.33l1.977 1.493 2.01-2.011-1.492-1.978a.5.5 0 0 1 .33-.8Zm-5.392 1.8a3.57 3.57 0 1 1 3.57-3.57 3.574 3.574 0 0 1-3.57 3.573Z"/><path d="M13.348 8.778a4.57 4.57 0 1 0 4.57 4.57 4.575 4.575 0 0 0-4.57-4.57m0 8.14a3.57 3.57 0 1 1 3.57-3.57 3.574 3.574 0 0 1-3.57 3.57m22.403 21.845a.5.5 0 0 0 .707 0l4.124-4.124a.5.5 0 0 0-.707-.707L36.1 37.7l-1.828-1.83a.5.5 0 0 0-.707.707Z" class="cls-1"/></svg>