<svg width="48" height="48" viewBox="0 0 48 48" fill="none" xmlns="http://www.w3.org/2000/svg">
<g clip-path="url(#clip0_203_36)">
<path d="M9.29545 28.2775V39.9138H7.88636V29.7548H7.81818L4.97727 31.6411V30.2093L7.88636 28.2775H9.29545ZM16.733 28.2775V39.9138H15.3239V29.7548H15.2557L12.4148 31.6411V30.2093L15.3239 28.2775H16.733ZM23.875 40.0729C23.0189 40.0729 22.2898 39.84 21.6875 39.3741C21.0852 38.9044 20.625 38.2245 20.3068 37.3343C19.9886 36.4404 19.8295 35.3608 19.8295 34.0957C19.8295 32.8381 19.9886 31.7642 20.3068 30.8741C20.6288 29.9801 21.0909 29.2983 21.6932 28.8286C22.2992 28.3551 23.0265 28.1184 23.875 28.1184C24.7235 28.1184 25.4489 28.3551 26.0511 28.8286C26.6572 29.2983 27.1193 29.9801 27.4375 30.8741C27.7595 31.7642 27.9205 32.8381 27.9205 34.0957C27.9205 35.3608 27.7614 36.4404 27.4432 37.3343C27.125 38.2245 26.6648 38.9044 26.0625 39.3741C25.4602 39.84 24.7311 40.0729 23.875 40.0729ZM23.875 38.8229C24.7235 38.8229 25.3826 38.4138 25.8523 37.5957C26.322 36.7775 26.5568 35.6108 26.5568 34.0957C26.5568 33.0881 26.4489 32.2301 26.233 31.5218C26.0208 30.8135 25.714 30.2737 25.3125 29.9025C24.9148 29.5313 24.4356 29.3457 23.875 29.3457C23.0341 29.3457 22.3769 29.7604 21.9034 30.59C21.4299 31.4157 21.1932 32.5843 21.1932 34.0957C21.1932 35.1032 21.2992 35.9593 21.5114 36.6638C21.7235 37.3684 22.0284 37.9044 22.4261 38.2718C22.8277 38.6392 23.3106 38.8229 23.875 38.8229ZM34.1705 28.2775V39.9138H32.7614V29.7548H32.6932L29.8523 31.6411V30.2093L32.7614 28.2775H34.1705ZM41.608 28.2775V39.9138H40.1989V29.7548H40.1307L37.2898 31.6411V30.2093L40.1989 28.2775H41.608Z" fill="#F80D0D"/>
<g filter="url(#filter0_d_203_36)">
<path d="M42.1579 22.4532C42.4558 22.9183 43.0743 23.0538 43.5393 22.7559C44.0044 22.4581 44.14 21.8396 43.8421 21.3745L42.1579 22.4532ZM4.01821 22.1038C4.12312 22.646 4.64774 23.0006 5.18996 22.8956L14.0261 21.186C14.5683 21.0811 14.9228 20.5564 14.8179 20.0142C14.713 19.472 14.1884 19.1175 13.6462 19.2224L5.79183 20.7421L4.27212 12.8878C4.1672 12.3455 3.64259 11.991 3.10036 12.0959C2.55813 12.2009 2.20362 12.7255 2.30853 13.2677L4.01821 22.1038ZM43.8421 21.3745C40.1763 15.6508 36.8626 11.3207 33.6971 8.42165C30.5282 5.51946 27.4126 3.96581 24.1654 4.00057C20.9259 4.03524 17.7898 5.64901 14.572 8.55661C11.3535 11.4648 7.95361 15.7571 4.17144 21.3539L5.82856 22.4738C9.58222 16.919 12.875 12.7856 15.9129 10.0405C18.9515 7.29486 21.6356 6.02776 24.1868 6.00045C26.7304 5.97323 29.3763 7.17649 32.3464 9.89658C35.3198 12.6198 38.5227 16.7773 42.1579 22.4532L43.8421 21.3745Z" fill="#343434"/>
</g>
</g>
<defs>
<filter id="filter0_d_203_36" x="-1.70985" y="3.99999" width="49.71" height="26.914" filterUnits="userSpaceOnUse" color-interpolation-filters="sRGB">
<feFlood flood-opacity="0" result="BackgroundImageFix"/>
<feColorMatrix in="SourceAlpha" type="matrix" values="0 0 0 0 0 0 0 0 0 0 0 0 0 0 0 0 0 0 127 0" result="hardAlpha"/>
<feOffset dy="4"/>
<feGaussianBlur stdDeviation="2"/>
<feComposite in2="hardAlpha" operator="out"/>
<feColorMatrix type="matrix" values="0 0 0 0 0 0 0 0 0 0 0 0 0 0 0 0 0 0 0.25 0"/>
<feBlend mode="normal" in2="BackgroundImageFix" result="effect1_dropShadow_203_36"/>
<feBlend mode="normal" in="SourceGraphic" in2="effect1_dropShadow_203_36" result="shape"/>
</filter>
<clipPath id="clip0_203_36">
<rect width="48" height="48" fill="white"/>
</clipPath>
</defs>
</svg>
