<svg width="48" height="48" viewBox="0 0 48 48" fill="none" xmlns="http://www.w3.org/2000/svg">
<path d="M14.3352 25.1648V29H12.7926V20.2727H14.3011V23.5668H14.3778C14.5313 23.1974 14.7685 22.9062 15.0895 22.6932C15.4134 22.4773 15.8253 22.3693 16.3253 22.3693C16.7798 22.3693 17.1761 22.4645 17.5142 22.6548C17.8523 22.8452 18.1136 23.1236 18.2983 23.4901C18.4858 23.8565 18.5795 24.304 18.5795 24.8324V29H17.0369V25.071C17.0369 24.6307 16.9233 24.2884 16.696 24.044C16.4716 23.7969 16.1562 23.6733 15.75 23.6733C15.4773 23.6733 15.233 23.733 15.017 23.8523C14.804 23.9687 14.6364 24.1378 14.5142 24.3594C14.3949 24.581 14.3352 24.8494 14.3352 25.1648ZM23.4205 22.4545V23.6477H19.6577V22.4545H23.4205ZM20.5866 20.8864H22.1293V27.0312C22.1293 27.2386 22.1605 27.3977 22.223 27.5085C22.2884 27.6165 22.3736 27.6903 22.4787 27.7301C22.5838 27.7699 22.7003 27.7898 22.8281 27.7898C22.9247 27.7898 23.0128 27.7827 23.0923 27.7685C23.1747 27.7543 23.2372 27.7415 23.2798 27.7301L23.5398 28.9361C23.4574 28.9645 23.3395 28.9957 23.1861 29.0298C23.0355 29.0639 22.8509 29.0838 22.6321 29.0895C22.2457 29.1009 21.8977 29.0426 21.5881 28.9148C21.2784 28.7841 21.0327 28.5824 20.8509 28.3097C20.6719 28.0369 20.5838 27.696 20.5866 27.2869V20.8864ZM27.979 22.4545V23.6477H24.2163V22.4545H27.979ZM25.1452 20.8864H26.6879V27.0312C26.6879 27.2386 26.7191 27.3977 26.7816 27.5085C26.8469 27.6165 26.9322 27.6903 27.0373 27.7301C27.1424 27.7699 27.2589 27.7898 27.3867 27.7898C27.4833 27.7898 27.5714 27.7827 27.6509 27.7685C27.7333 27.7543 27.7958 27.7415 27.8384 27.7301L28.0984 28.9361C28.016 28.9645 27.8981 28.9957 27.7447 29.0298C27.5941 29.0639 27.4094 29.0838 27.1907 29.0895C26.8043 29.1009 26.4563 29.0426 26.1467 28.9148C25.837 28.7841 25.5913 28.5824 25.4094 28.3097C25.2305 28.0369 25.1424 27.696 25.1452 27.2869V20.8864ZM29.2692 31.4545V22.4545H30.7862V23.5369H30.8757C30.9553 23.3778 31.0675 23.2088 31.2124 23.0298C31.3572 22.848 31.5533 22.6932 31.8004 22.5653C32.0476 22.4347 32.3629 22.3693 32.7464 22.3693C33.2521 22.3693 33.7081 22.4986 34.1143 22.7571C34.5234 23.0128 34.8473 23.392 35.0859 23.8949C35.3274 24.3949 35.4482 25.0085 35.4482 25.7358C35.4482 26.4545 35.3303 27.0653 35.0945 27.5682C34.8587 28.071 34.5376 28.4545 34.1314 28.7188C33.7251 28.983 33.2649 29.1151 32.7507 29.1151C32.3757 29.1151 32.0646 29.0526 31.8175 28.9276C31.5703 28.8026 31.3714 28.652 31.2209 28.4759C31.0732 28.2969 30.9581 28.1278 30.8757 27.9688H30.8118V31.4545H29.2692ZM30.782 25.7273C30.782 26.1506 30.8416 26.5213 30.9609 26.8395C31.0831 27.1577 31.2578 27.4062 31.4851 27.5852C31.7152 27.7614 31.9936 27.8494 32.3203 27.8494C32.6612 27.8494 32.9467 27.7585 33.1768 27.5767C33.407 27.392 33.5803 27.1406 33.6967 26.8224C33.8161 26.5014 33.8757 26.1364 33.8757 25.7273C33.8757 25.321 33.8175 24.9602 33.701 24.6449C33.5845 24.3295 33.4112 24.0824 33.1811 23.9034C32.951 23.7244 32.6641 23.6349 32.3203 23.6349C31.9908 23.6349 31.7109 23.7216 31.4808 23.8949C31.2507 24.0682 31.076 24.3111 30.9567 24.6236C30.8402 24.9361 30.782 25.304 30.782 25.7273Z" fill="black"/>
<path d="M38.6924 6.20385C38.805 5.9517 38.6918 5.65602 38.4397 5.54344L34.3306 3.70879C34.0785 3.59621 33.7828 3.70935 33.6702 3.9615C33.5577 4.21365 33.6708 4.50932 33.9229 4.62191L37.5754 6.25271L35.9446 9.90517C35.832 10.1573 35.9452 10.453 36.1973 10.5656C36.4495 10.6782 36.7451 10.565 36.8577 10.3129L38.6924 6.20385ZM10.1787 17.2715L38.4145 6.46698L38.0571 5.53302L9.82131 16.3376L10.1787 17.2715Z" fill="#1400FF"/>
<path d="M9.30763 41.6007C9.19504 41.8529 9.30819 42.1485 9.56033 42.2611L13.6694 44.0958C13.9215 44.2084 14.2172 44.0952 14.3298 43.8431C14.4423 43.5909 14.3292 43.2952 14.0771 43.1827L10.4246 41.5519L12.0554 37.8994C12.168 37.6472 12.0548 37.3516 11.8027 37.239C11.5505 37.1264 11.2549 37.2395 11.1423 37.4917L9.30763 41.6007ZM37.8213 30.533L9.58549 41.3376L9.94288 42.2715L38.1787 31.467L37.8213 30.533Z" fill="url(#paint0_linear_250_4)"/>
<defs>
<linearGradient id="paint0_linear_250_4" x1="9.58549" y1="41.3376" x2="37.8213" y2="30.533" gradientUnits="userSpaceOnUse">
<stop stop-color="#05FF00"/>
<stop offset="1" stop-color="#FF0000"/>
</linearGradient>
</defs>
</svg>
