<svg width="48" height="48" viewBox="0 0 48 48" fill="none" xmlns="http://www.w3.org/2000/svg">
<path fill-rule="evenodd" clip-rule="evenodd" d="M9.47307 14.0002C9.19693 13.5219 9.3608 12.9103 9.83909 12.6341L10.7051 12.1341C11.1834 11.858 11.795 12.0219 12.0711 12.5002L16.3224 19.8636C18.622 18.4598 21.2212 17.6341 23.9731 17.6341C26.6064 17.6341 29.0998 18.3902 31.3247 19.6853L35.4731 12.5002C35.7492 12.0219 36.3608 11.858 36.8391 12.1341L37.7051 12.6341C38.1834 12.9103 38.3473 13.5219 38.0711 14.0002L33.7854 21.4234C37.8817 24.8707 40.6382 30.2318 40.9446 35.6347C40.9759 36.1861 40.5254 36.6341 39.9731 36.6341H7.97307C7.42078 36.6341 6.97027 36.1861 7.00154 35.6347C7.30116 30.3508 9.94421 25.1069 13.892 21.654L9.47307 14.0002ZM19.9731 26.6341C19.9731 27.7387 19.0777 28.6341 17.9731 28.6341C16.8685 28.6341 15.9731 27.7387 15.9731 26.6341C15.9731 25.5296 16.8685 24.6341 17.9731 24.6341C19.0777 24.6341 19.9731 25.5296 19.9731 26.6341ZM29.9731 28.6341C31.0777 28.6341 31.9731 27.7387 31.9731 26.6341C31.9731 25.5296 31.0777 24.6341 29.9731 24.6341C28.8685 24.6341 27.9731 25.5296 27.9731 26.6341C27.9731 27.7387 28.8685 28.6341 29.9731 28.6341Z" fill="#6EAF62"/>
</svg>
