<svg width="48" height="48" viewBox="0 0 48 48" fill="none" xmlns="http://www.w3.org/2000/svg">
<path fill-rule="evenodd" clip-rule="evenodd" d="M23.6538 7L39.3077 14.9444V31.75L23.6538 40L8 31.75V14.9444L23.6538 7ZM26.75 21.0769H24.9615C24.8558 20.5625 24.6707 20.1106 24.4063 19.7212C24.1466 19.3317 23.8293 19.0048 23.4543 18.7404C23.0841 18.4712 22.6731 18.2692 22.2212 18.1346C21.7692 18 21.2981 17.9327 20.8077 17.9327C19.9135 17.9327 19.1034 18.1587 18.3774 18.6106C17.6562 19.0625 17.0817 19.7284 16.6538 20.6082C16.2308 21.488 16.0192 22.5673 16.0192 23.8462C16.0192 25.125 16.2308 26.2043 16.6538 27.0841C17.0817 27.9639 17.6562 28.6298 18.3774 29.0817C19.1034 29.5337 19.9135 29.7596 20.8077 29.7596C21.2981 29.7596 21.7692 29.6923 22.2212 29.5577C22.6731 29.4231 23.0841 29.2236 23.4543 28.9591C23.8293 28.6899 24.1466 28.3606 24.4063 27.9712C24.6707 27.5769 24.8558 27.125 24.9615 26.6154H26.75C26.6154 27.3702 26.3702 28.0457 26.0144 28.6418C25.6587 29.238 25.2163 29.7452 24.6875 30.1635C24.1587 30.5769 23.5649 30.8918 22.9063 31.1082C22.2524 31.3245 21.5529 31.4327 20.8077 31.4327C19.5481 31.4327 18.4279 31.125 17.4471 30.5096C16.4663 29.8942 15.6947 29.0192 15.1322 27.8846C14.5697 26.75 14.2885 25.4038 14.2885 23.8462C14.2885 22.2885 14.5697 20.9423 15.1322 19.8077C15.6947 18.6731 16.4663 17.7981 17.4471 17.1827C18.4279 16.5673 19.5481 16.2596 20.8077 16.2596C21.5529 16.2596 22.2524 16.3678 22.9063 16.5841C23.5649 16.8005 24.1587 17.1178 24.6875 17.5361C25.2163 17.9495 25.6587 18.4543 26.0144 19.0505C26.3702 19.6418 26.6154 20.3173 26.75 21.0769ZM31.8549 26.8149L31.5469 28.6923H32.2079L32.5159 26.8149H33.5168L33.6226 26.1538H32.6244L32.902 24.4615H33.9135L34.0192 23.8005H33.0105L33.3185 21.9231H32.6575L32.3494 23.8005H30.6307L30.9387 21.9231H30.2776L29.9696 23.8005H28.9688L28.863 24.4615H29.8612L29.5835 26.1538H28.5721L28.4664 26.8149H29.4751L29.1671 28.6923H29.8281L30.1361 26.8149H31.8549ZM31.9633 26.1538L32.241 24.4615H30.5222L30.2446 26.1538H31.9633Z" fill="#3D0063"/>
</svg>
