<svg width="48" height="48" viewBox="0 0 48 48" fill="none" xmlns="http://www.w3.org/2000/svg">
<g clip-path="url(#clip0_208_2)">
<path d="M3 11H45.1875V38H3V11Z" fill="#032EA1"/>
<path d="M3 17.75H45.1875V31.25H3V17.75Z" fill="#E00025"/>
<path d="M20.2807 23.646H27.9622V26.6017H20.2807V23.646Z" fill="white" stroke="black" stroke-width="0.06075" stroke-linejoin="bevel"/>
<path d="M20.2502 24.2622H27.9317V24.5653H20.2502V24.2622ZM20.2502 24.728H27.9317V25.0716H20.2502V24.728ZM20.3576 25.2781V26.3915H20.5997V25.2781H20.3576ZM20.8322 25.2781V26.3915H21.0742V25.2781H20.8322ZM21.3384 25.2781V26.3915H21.5804V25.2781H21.3384ZM21.8447 25.2781V26.3915H22.0867V25.2781H21.8447ZM22.3192 25.2781V26.3915H22.5612V25.2781H22.3192ZM25.626 25.2781V26.3915H25.8681V25.2781H25.626ZM26.085 25.2781V26.3915H26.3271V25.2781H26.085ZM26.5913 25.2781V26.3915H26.8333V25.2781H26.5913ZM27.0975 25.2781V26.3915H27.3395V25.2781H27.0975ZM27.5822 25.2781V26.3915H27.8242V25.2781H27.5822Z" fill="white" stroke="black" stroke-width="0.06075" stroke-linejoin="bevel"/>
<path d="M20.2503 23.7972H27.9318V24.0911H20.2503V23.7972Z" fill="white" stroke="black" stroke-width="0.059805" stroke-linejoin="bevel"/>
<path d="M17.2761 26.757C17.3949 26.6965 17.5304 26.5556 17.5747 26.3979H30.607C30.6513 26.5556 30.7869 26.6965 30.9057 26.757H17.2761Z" fill="white" stroke="black" stroke-width="0.0533925"/>
<path d="M23.9318 19.1464C23.9318 19.1464 23.922 18.8689 24.0836 18.8658C24.2454 18.8688 24.2355 19.1464 24.2355 19.1464H23.9318ZM23.0887 22.8279V22.4542C23.0833 22.2673 22.9024 22.2538 22.8971 22.1176C22.8971 22.1176 22.8738 21.9133 22.9276 21.8201C23.0008 22.0933 23.1339 22.0431 23.1339 21.9308C23.1339 21.8327 23.0585 21.7415 22.9039 21.5035C22.8545 21.4274 22.885 21.189 22.9543 21.1037C22.9811 21.3109 23.0118 21.4102 23.1008 21.4102C23.1551 21.4102 23.1994 21.3748 23.1994 21.271C23.1994 21.1389 23.11 21.0722 23.066 20.952C23.0147 20.8118 23.0501 20.6688 23.1353 20.5889C23.1718 20.7934 23.1609 20.8749 23.2518 20.8749C23.435 20.817 23.2518 20.5518 23.2127 20.4849C23.1677 20.407 23.2732 20.2514 23.2732 20.2514C23.3315 20.433 23.3502 20.4478 23.413 20.4309C23.4922 20.4097 23.482 20.2922 23.3853 20.1972C23.3243 20.1371 23.3307 20.0479 23.3963 19.9762C23.4621 20.1048 23.5463 20.097 23.5544 20.0206L23.5015 19.7241H24.6662L24.6084 20.011C24.5919 20.093 24.7027 20.1109 24.7715 19.9763C24.8371 20.0479 24.8435 20.1372 24.7825 20.1972C24.6859 20.2922 24.6756 20.4097 24.7549 20.431C24.8176 20.4479 24.8364 20.433 24.8946 20.2515C24.8946 20.2515 24.9893 20.3574 24.9551 20.485C24.916 20.5518 24.7328 20.8171 24.916 20.875C25.0068 20.875 24.996 20.7934 25.0325 20.589C25.1177 20.6689 25.153 20.8118 25.1017 20.9521C25.0579 21.0723 24.9684 21.1389 24.9684 21.271C24.9684 21.3749 25.0127 21.4102 25.0669 21.4102C25.156 21.4102 25.1867 21.311 25.2136 21.1038C25.2828 21.189 25.3133 21.4274 25.2639 21.5035C25.1094 21.7415 25.0339 21.8327 25.0339 21.9308C25.0339 22.0431 25.1669 22.0933 25.2402 21.8201C25.294 21.9132 25.2706 22.1176 25.2706 22.1176C25.2653 22.2538 25.0844 22.2673 25.0791 22.4542V22.8279H23.0887ZM23.576 19.7215L23.5492 19.5106H24.6183L24.5916 19.7215H23.576ZM23.6476 19.5062L23.6246 19.3327H24.5428L24.5199 19.5062H23.6476ZM23.7934 19.3266L23.7781 19.1532H24.3895L24.3742 19.3266H23.7934ZM26.0222 26.757C25.8854 26.7044 25.6863 26.5599 25.6863 26.4148V24.7748L25.8643 24.5481H22.302L22.4728 24.7749V26.4149C22.4728 26.56 22.336 26.7045 22.1992 26.7571L26.0222 26.757Z" fill="white" stroke="black" stroke-width="0.06075"/>
<path d="M22.9463 25.2781H23.1883V26.3915H22.9463V25.2781ZM24.9929 25.2781H25.2349V26.3915H24.9929V25.2781Z" fill="white" stroke="black" stroke-width="0.05697" stroke-linejoin="bevel"/>
<path d="M22.2649 22.6814V24.5482H25.9115V24.1461L25.9167 22.6813C25.7677 22.7399 25.7415 22.875 25.7415 22.875V23.67H22.4509V22.8751C22.4509 22.8751 22.4142 22.74 22.265 22.6814H22.2649Z" fill="white" stroke="black" stroke-width="0.06075"/>
<path d="M22.837 24.3528C22.9521 24.4137 23.0804 24.4643 23.1263 24.5796V26.4149C23.1263 26.5586 22.9253 26.7013 22.8057 26.7553L22.8018 26.757H22.802L22.8018 26.7571H25.38L25.3762 26.7553C25.2565 26.7013 25.0556 26.5586 25.0556 26.4149V24.5796C25.1014 24.4643 25.2297 24.4137 25.3449 24.3528H22.8369H22.837Z" fill="white"/>
<path d="M25.38 26.7571H22.8018L22.802 26.757H22.8018L22.8057 26.7553C22.9253 26.7013 23.1263 26.5586 23.1263 26.4149V24.5796C23.0804 24.4643 22.9521 24.4137 22.837 24.3528H22.8369H25.3449C25.2297 24.4137 25.1014 24.4643 25.0556 24.5796V26.4149C25.0556 26.5586 25.2565 26.7013 25.3762 26.7553L25.38 26.7571ZM25.38 26.7571H25.3798" stroke="black" stroke-width="0.06075"/>
<path d="M25.7333 24.3722V23.0501H25.4019V22.9212H22.7802V23.0501H22.4488V24.3722H25.7333ZM24.8862 26.757C24.7694 26.7044 24.5993 26.5599 24.5993 26.4148V24.8479L24.6953 24.7054H23.5012L23.5971 24.8479V26.4149C23.5971 26.5601 23.427 26.7044 23.3102 26.7571L24.8862 26.757Z" fill="white" stroke="black" stroke-width="0.06075"/>
<path d="M23.7887 24.7057H24.3939V26.7562H23.7887V24.7057Z" fill="white" stroke="black" stroke-width="0.0621"/>
<path d="M24.6999 24.2548C24.7013 24.1198 25.094 24.1137 25.2961 23.9987H22.8693C23.0714 24.1137 23.4549 24.1231 23.4549 24.2548L23.537 24.5169L24.5416 24.5572L24.6999 24.2548Z" fill="white" stroke="black" stroke-width="0.05697" stroke-linejoin="bevel"/>
<path d="M25.1852 22.8279C25.1852 22.4971 25.1991 22.3698 25.3007 22.3698V23.4215C25.0516 23.5119 24.8737 23.8298 24.8737 23.8298H23.307C23.307 23.8298 23.1292 23.5119 22.88 23.4215V22.3698C23.0052 22.3698 23.0061 22.5029 23.0061 22.8279H25.1852ZM25.3007 22.6922C25.3007 22.313 25.628 22.2703 25.628 22.2703V22.6078C25.5035 22.6024 25.4433 22.7143 25.4433 22.8808C25.4433 23.0473 25.5437 23.0499 25.5437 23.0499V24.0078H25.3007L25.3007 22.6922Z" fill="white" stroke="black" stroke-width="0.06075"/>
<path d="M22.8815 22.6922C22.8815 22.313 22.5541 22.2703 22.5541 22.2703V22.6078C22.6786 22.6024 22.7388 22.7143 22.7388 22.8808C22.7388 23.0473 22.6384 23.0499 22.6384 23.0499V24.0078H22.8814L22.8815 22.6922Z" fill="white" stroke="black" stroke-width="0.06075"/>
<path d="M23.516 20.0793H24.6721M23.3789 20.4404H24.791M23.2419 20.8785H24.9229M23.0988 21.4137H25.0925M23.0529 22.0239H25.1067" stroke="black" stroke-width="0.050625"/>
<path d="M22.4299 24.0145H25.7144M23.4721 24.0152H24.6895V24.4627H23.4721V24.0152Z" stroke="black" stroke-width="0.06075"/>
<path d="M23.3195 23.0236C23.5213 23.2659 23.5026 23.677 23.5004 23.9193H24.671C24.6686 23.677 24.6499 23.2659 24.8518 23.0236H23.3195ZM23.9776 20.2473L23.8173 20.1647V19.9287C23.8827 19.9483 23.9564 19.9564 23.9636 20.0608C23.9864 19.9117 24.0276 19.919 24.0923 19.8608C24.1569 19.9189 24.1981 19.9117 24.2209 20.0608C24.2281 19.9564 24.3017 19.9483 24.3674 19.9285V20.1647L24.2069 20.2473L23.9776 20.2473Z" fill="white" stroke="black" stroke-width="0.06075"/>
<path d="M23.9669 20.6348L23.7005 20.4517V20.2341C23.7939 20.2557 23.8987 20.2645 23.9089 20.3792C23.9415 20.2156 24.0001 20.1311 24.0922 20.0674C24.1843 20.1311 24.2429 20.2156 24.2755 20.3792C24.2857 20.2645 24.3906 20.2557 24.484 20.2341V20.4517L24.2175 20.6348H23.9669Z" fill="white" stroke="black" stroke-width="0.06075"/>
<path d="M23.948 21.2389L23.6416 20.9699V20.6502C23.749 20.682 23.8696 20.6949 23.8814 20.8633C23.9187 20.623 23.9862 20.4988 24.092 20.4052C24.198 20.4988 24.2655 20.6229 24.3028 20.8632C24.3146 20.6949 24.4351 20.6819 24.5424 20.6501V20.9697L24.2362 21.2387L23.948 21.2389ZM24.5129 21.596L24.2359 21.9791H23.9223L23.6453 21.596H24.5129ZM23.4856 22.2393C23.6242 22.315 23.6753 22.4659 23.6901 22.7491H24.4697C24.4846 22.4659 24.5357 22.3151 24.6743 22.2393H23.4856Z" fill="white" stroke="black" stroke-width="0.06075"/>
<path d="M24.6972 21.596V21.2111C24.5656 21.2474 24.4803 21.3252 24.4423 21.431C24.4423 21.3032 24.2742 21.0087 24.0909 20.862C23.907 21.0262 23.736 21.2926 23.7394 21.431C23.7082 21.3303 23.6163 21.2474 23.4846 21.2111V21.596H24.6972Z" fill="white" stroke="black" stroke-width="0.05697" stroke-linejoin="bevel"/>
<path d="M24.7556 22.2392V21.8544C24.6113 21.8906 24.5179 21.9684 24.4761 22.0743C24.4761 21.9465 24.2919 21.6519 24.0909 21.5052C23.8894 21.6694 23.7019 21.9359 23.7057 22.0743C23.6714 21.9736 23.5706 21.8907 23.4263 21.8544V22.2392H24.7556Z" fill="white" stroke="black" stroke-width="0.05697" stroke-linejoin="bevel"/>
<path d="M24.9178 23.029V22.5851C24.7383 22.6314 24.6267 22.7641 24.5702 22.8416C24.5702 22.6013 24.2988 22.2347 24.0909 22.1147C23.8776 22.2379 23.6117 22.6166 23.6117 22.8416C23.5536 22.7646 23.4436 22.6314 23.2641 22.5851V23.029H24.9178Z" fill="white" stroke="black" stroke-width="0.05697" stroke-linejoin="bevel"/>
<path d="M24.8206 24.0145V23.5581C24.6622 23.6202 24.6149 23.7727 24.565 23.8765C24.5846 23.4134 24.3044 22.916 24.0909 22.7897C23.8774 22.916 23.5919 23.4242 23.6168 23.8765C23.5656 23.7734 23.5196 23.6202 23.3613 23.5581V24.0145H24.8206Z" fill="white" stroke="black" stroke-width="0.05697" stroke-linejoin="bevel"/>
<path d="M24.7096 24.7057V24.2493C24.5436 24.2888 24.5334 24.3498 24.4806 24.4522C24.5002 24.1756 24.3044 23.8602 24.0909 23.734C23.8774 23.8602 23.6816 24.1757 23.7012 24.4522C23.6485 24.3499 23.642 24.2888 23.4724 24.2493V24.7057H24.7096Z" fill="white" stroke="black" stroke-width="0.06075"/>
<path d="M17.5824 26.3979V25.0182C17.5371 24.8425 17.388 24.6872 17.2759 24.656V23.4414L17.5284 23.5781L17.8167 24.8477V26.3979H17.5824Z" fill="white" stroke="black" stroke-width="0.06075"/>
<path d="M17.5824 26.4033V25.0182C17.5371 24.8426 17.388 24.6872 17.2759 24.6561V23.3572C17.4453 23.3572 17.5284 23.5781 17.5284 23.5781L17.8167 24.8478V26.3927L17.5824 26.4033Z" fill="white" stroke="black" stroke-width="0.06075"/>
<path d="M17.4028 26.757C17.5196 26.7044 17.6897 26.5599 17.6897 26.4148V24.6904L17.6096 24.5481H20.5474L20.4328 24.6904V26.4148C20.4328 26.5599 20.5495 26.7044 20.6663 26.757H17.4028Z" fill="white" stroke="black" stroke-width="0.06075"/>
<path d="M20.0735 26.757C19.9567 26.7044 19.7866 26.5599 19.7866 26.4148V24.7748L20.0309 24.548L18.0337 24.5481L18.2781 24.7748V26.4148C18.2781 26.5599 18.108 26.7044 17.9912 26.757H20.0735Z" fill="white" stroke="black" stroke-width="0.06075"/>
<path d="M19.8034 26.757C19.6867 26.7044 19.5166 26.5599 19.5166 26.4148V24.9322L19.6765 24.7054H18.4077L18.5677 24.9322V26.4148C18.5677 26.5599 18.3976 26.7044 18.2808 26.757H19.8034Z" fill="white" stroke="black" stroke-width="0.06075"/>
<path d="M18.7397 24.7057H19.3459V26.7572H18.7397V24.7057Z" fill="white" stroke="black" stroke-width="0.06075"/>
<path d="M17.904 25.2781H18.1461V26.3915H17.904V25.2781ZM19.9187 25.2781H20.1608V26.3915H19.9187V25.2781ZM17.6974 23.4003H17.989V24.5417H17.6974V23.4003ZM17.6974 23.1856H17.9874V23.3976H17.6974V23.1856Z" fill="white" stroke="black" stroke-width="0.05697" stroke-linejoin="bevel"/>
<path d="M20.0957 23.646H20.5115V24.5271H20.0957V23.646Z" fill="white" stroke="black" stroke-width="0.0654075" stroke-linejoin="bevel"/>
<path d="M17.9843 24.5329V22.5795C18.0675 22.5795 18.0803 22.8657 18.2712 22.8657C18.3704 22.8657 18.3599 22.7471 18.3041 22.6505C18.2547 22.565 18.1936 22.4468 18.2767 22.2266C18.3336 22.3951 18.4868 22.4486 18.4585 22.3429C18.4099 22.1615 18.2698 22.1317 18.3748 21.8501C18.4114 22.085 18.5621 22.0746 18.5255 21.9381C18.4843 21.7842 18.399 21.7211 18.5041 21.5042C18.5631 21.7506 18.6427 21.7361 18.6427 21.5832C18.6427 21.3573 18.634 21.1136 18.9264 21.0233C18.9264 21.0233 18.9432 20.8162 19.0487 20.8162C19.1541 20.8162 19.171 21.0233 19.171 21.0233C19.4633 21.1137 19.4547 21.3574 19.4547 21.5832C19.4547 21.7361 19.5343 21.7506 19.5932 21.5043C19.6984 21.7212 19.6131 21.7842 19.5719 21.9381C19.5352 22.0747 19.686 22.0851 19.7224 21.8501C19.8275 22.1317 19.6875 22.1616 19.6387 22.343C19.6105 22.4486 19.7636 22.3952 19.8206 22.2268C19.9036 22.4468 19.8425 22.565 19.7931 22.6507C19.7374 22.7472 19.7268 22.8658 19.8262 22.8658C20.017 22.8658 20.0298 22.5796 20.1129 22.5796V24.533L17.9843 24.5329ZM17.5276 23.0574V24.5478H17.697V23.0536C17.636 23.0227 17.5786 23.018 17.5276 23.0574Z" fill="white" stroke="black" stroke-width="0.06075"/>
<path d="M17.5329 24.0219C17.743 24.1292 17.9511 24.2536 18.0038 24.5479H17.5329V24.0219ZM20.4467 23.5757V24.5482H20.5841V23.5733C20.5412 23.5532 20.4826 23.55 20.4467 23.5757Z" fill="white" stroke="black" stroke-width="0.06075"/>
<path d="M20.5844 24.0145C20.3744 24.1218 20.1663 24.2462 20.1136 24.5405H20.5844V24.0145ZM19.1953 21.7431L19.3177 21.6402V21.5084C19.2729 21.5128 19.2485 21.5281 19.2154 21.5715C19.1873 21.4841 19.1254 21.416 19.0425 21.3736C18.9594 21.416 18.8976 21.4811 18.8695 21.5684C18.8364 21.525 18.812 21.5128 18.7671 21.5084V21.6402L18.8896 21.7431H19.1953Z" fill="white" stroke="black" stroke-width="0.06075"/>
<path d="M19.2608 22.0732L19.3177 21.95V21.7786C19.2729 21.7831 19.2485 21.7987 19.2154 21.8427C19.1873 21.7541 19.1254 21.6849 19.0425 21.642C18.9594 21.685 18.8976 21.751 18.8695 21.8396C18.8364 21.7957 18.812 21.7832 18.7671 21.7787V21.9502L18.8241 22.0733L19.2608 22.0732Z" fill="white" stroke="black" stroke-width="0.06075"/>
<path d="M19.2693 22.5207L19.4512 22.2989V22.0799C19.3847 22.0874 19.3484 22.1139 19.2992 22.1884C19.2574 22.0384 19.1656 22.0056 19.0423 21.9328C18.9192 22.0056 18.8273 22.033 18.7855 22.183C18.7363 22.1086 18.7 22.0874 18.6336 22.0799V22.2989L18.8153 22.5207H19.2693Z" fill="white" stroke="black" stroke-width="0.06075"/>
<path d="M19.3227 22.9601C19.3227 22.9601 19.5347 22.7752 19.5472 22.6737V22.4397C19.4651 22.4492 19.3874 22.4706 19.3267 22.5667C19.2751 22.373 19.1944 22.319 19.0425 22.225C18.8903 22.319 18.8097 22.373 18.7581 22.5667C18.6973 22.4705 18.6197 22.4492 18.5376 22.4396V22.6735C18.5643 22.7751 18.7621 22.96 18.7621 22.96L19.3227 22.9601Z" fill="white" stroke="black" stroke-width="0.06075"/>
<path d="M19.413 23.7715C19.413 23.7715 19.7033 23.4502 19.71 23.3249V22.96C19.6014 22.9751 19.4987 23.0498 19.4184 23.1997C19.3502 22.8977 19.2436 22.6871 19.0425 22.5406C18.8413 22.6871 18.7347 22.8977 18.6665 23.1997C18.5862 23.0497 18.4834 22.975 18.3748 22.96V23.3249C18.3956 23.4501 18.6718 23.7714 18.6718 23.7714L19.413 23.7715Z" fill="white" stroke="black" stroke-width="0.06075"/>
<path d="M19.413 24.2514C19.413 24.2514 19.6612 23.9989 19.71 23.8892V23.5243C19.6014 23.5394 19.4987 23.6141 19.4184 23.764C19.3502 23.462 19.2436 23.289 19.0425 23.1425C18.8413 23.289 18.7347 23.462 18.6665 23.764C18.5862 23.614 18.4834 23.5392 18.3748 23.5243V23.8892C18.4378 23.9988 18.6718 24.2514 18.6718 24.2514L19.413 24.2514Z" fill="white" stroke="black" stroke-width="0.06075"/>
<path d="M19.526 24.5302C19.4537 24.2151 19.3914 23.9814 19.0426 23.7445C18.6938 23.9814 18.6315 24.2151 18.559 24.5302H19.526Z" fill="white" stroke="black" stroke-width="0.06075"/>
<path d="M19.7014 24.7057V24.2493C19.5431 24.3114 19.3999 24.4032 19.3471 24.5054C19.2882 24.252 19.1745 24.1404 19.0331 23.987C18.8915 24.1404 18.7968 24.252 18.7378 24.5054C18.685 24.4032 18.5419 24.3114 18.3834 24.2493V24.7057H19.7014Z" fill="white" stroke="black" stroke-width="0.06075"/>
<path d="M30.6011 26.3979V25.0182C30.6463 24.8425 30.7955 24.6872 30.9076 24.656V23.4414L30.6551 23.5781L30.3667 24.8477V26.3979H30.6011Z" fill="white" stroke="black" stroke-width="0.06075"/>
<path d="M30.6011 26.4033V25.0182C30.6463 24.8426 30.7955 24.6872 30.9076 24.6561V23.3572C30.7381 23.3572 30.6551 23.5781 30.6551 23.5781L30.3667 24.8478V26.3927L30.6011 26.4033Z" fill="white" stroke="black" stroke-width="0.06075"/>
<path d="M30.7807 26.757C30.6639 26.7044 30.4938 26.5599 30.4938 26.4148V24.6904L30.5739 24.5481H27.6361L27.7507 24.6904V26.4148C27.7507 26.5599 27.6339 26.7044 27.5172 26.757H30.7807Z" fill="white" stroke="black" stroke-width="0.06075"/>
<path d="M28.11 26.757C28.2268 26.7044 28.3969 26.5599 28.3969 26.4148V24.7748L28.1525 24.548L30.1497 24.5481L29.9054 24.7748V26.4148C29.9054 26.5599 30.0755 26.7044 30.1923 26.757H28.11Z" fill="white" stroke="black" stroke-width="0.06075"/>
<path d="M28.38 26.757C28.4968 26.7044 28.6669 26.5599 28.6669 26.4148V24.9322L28.5069 24.7054H29.7758L29.6158 24.9322V26.4148C29.6158 26.5599 29.7859 26.7044 29.9027 26.757H28.38Z" fill="white" stroke="black" stroke-width="0.06075"/>
<path d="M29.4438 24.7057H28.8376V26.7572H29.4438V24.7057Z" fill="white" stroke="black" stroke-width="0.06075"/>
<path d="M30.2795 25.2781H30.0374V26.3915H30.2795V25.2781ZM28.2647 25.2781H28.0227V26.3915H28.2647V25.2781ZM30.486 23.4003H30.1944V24.5417H30.486V23.4003ZM30.486 23.1856H30.1961V23.3976H30.486V23.1856Z" fill="white" stroke="black" stroke-width="0.05697" stroke-linejoin="bevel"/>
<path d="M28.0877 23.646H27.6719V24.5271H28.0877V23.646Z" fill="white" stroke="black" stroke-width="0.0654075" stroke-linejoin="bevel"/>
<path d="M30.1991 24.5329V22.5795C30.116 22.5795 30.1032 22.8657 29.9123 22.8657C29.813 22.8657 29.8236 22.7471 29.8793 22.6505C29.9287 22.565 29.9898 22.4468 29.9068 22.2266C29.8498 22.3951 29.6967 22.4486 29.725 22.3429C29.7736 22.1615 29.9136 22.1317 29.8087 21.8501C29.7721 22.085 29.6214 22.0746 29.658 21.9381C29.6992 21.7842 29.7844 21.7211 29.6793 21.5042C29.6204 21.7506 29.5408 21.7361 29.5408 21.5832C29.5408 21.3573 29.5495 21.1136 29.2571 21.0233C29.2571 21.0233 29.2402 20.8162 29.1348 20.8162C29.0294 20.8162 29.0124 21.0233 29.0124 21.0233C28.7201 21.1137 28.7288 21.3574 28.7288 21.5832C28.7288 21.7361 28.6491 21.7506 28.5903 21.5043C28.4851 21.7212 28.5704 21.7842 28.6115 21.9381C28.6483 22.0747 28.4975 22.0851 28.461 21.8501C28.356 22.1317 28.496 22.1616 28.5447 22.343C28.5729 22.4486 28.4198 22.3952 28.3629 22.2268C28.2798 22.4468 28.3409 22.565 28.3903 22.6507C28.4461 22.7472 28.4567 22.8658 28.3573 22.8658C28.1665 22.8658 28.1537 22.5796 28.0705 22.5796V24.533L30.1991 24.5329ZM30.6558 23.0574V24.5478H30.4864V23.0536C30.5474 23.0227 30.6048 23.018 30.6558 23.0574Z" fill="white" stroke="black" stroke-width="0.06075"/>
<path d="M30.6505 24.0219C30.4405 24.1292 30.2324 24.2536 30.1797 24.5479H30.6505V24.0219ZM27.7367 23.5757V24.5482H27.5994V23.5733C27.6422 23.5532 27.7008 23.55 27.7367 23.5757Z" fill="white" stroke="black" stroke-width="0.06075"/>
<path d="M27.599 24.0145C27.8091 24.1218 28.0172 24.2462 28.0698 24.5405H27.599V24.0145ZM28.9882 21.7431L28.8657 21.6402V21.5084C28.9106 21.5128 28.935 21.5281 28.9681 21.5715C28.9962 21.4841 29.0581 21.416 29.141 21.3736C29.224 21.416 29.2859 21.4811 29.314 21.5684C29.3471 21.525 29.3715 21.5128 29.4163 21.5084V21.6402L29.2938 21.7431H28.9882Z" fill="white" stroke="black" stroke-width="0.06075"/>
<path d="M28.9226 22.0732L28.8657 21.95V21.7786C28.9106 21.7831 28.935 21.7987 28.9681 21.8427C28.9962 21.7541 29.0581 21.6849 29.141 21.642C29.224 21.685 29.2859 21.751 29.314 21.8396C29.3471 21.7957 29.3715 21.7832 29.4163 21.7787V21.9502L29.3594 22.0733L28.9226 22.0732Z" fill="white" stroke="black" stroke-width="0.06075"/>
<path d="M28.9141 22.5207L28.7322 22.2989V22.0799C28.7988 22.0874 28.8351 22.1139 28.8842 22.1884C28.9261 22.0384 29.0179 22.0056 29.1411 21.9328C29.2643 22.0056 29.3562 22.033 29.398 22.183C29.4472 22.1086 29.4835 22.0874 29.5499 22.0799V22.2989L29.3681 22.5207H28.9141Z" fill="white" stroke="black" stroke-width="0.06075"/>
<path d="M28.8608 22.9601C28.8608 22.9601 28.6488 22.7752 28.6362 22.6737V22.4397C28.7184 22.4492 28.7961 22.4706 28.8568 22.5667C28.9083 22.373 28.9891 22.319 29.141 22.225C29.2932 22.319 29.3738 22.373 29.4254 22.5667C29.4861 22.4705 29.5638 22.4492 29.6458 22.4396V22.6735C29.6192 22.7751 29.4214 22.96 29.4214 22.96L28.8608 22.9601Z" fill="white" stroke="black" stroke-width="0.06075"/>
<path d="M28.7704 23.7715C28.7704 23.7715 28.4802 23.4502 28.4734 23.3249V22.96C28.5821 22.9751 28.6848 23.0498 28.765 23.1997C28.8333 22.8977 28.9399 22.6871 29.141 22.5406C29.3422 22.6871 29.4488 22.8977 29.517 23.1997C29.5973 23.0497 29.7 22.975 29.8087 22.96V23.3249C29.7879 23.4501 29.5117 23.7714 29.5117 23.7714L28.7704 23.7715Z" fill="white" stroke="black" stroke-width="0.06075"/>
<path d="M28.7704 24.2514C28.7704 24.2514 28.5222 23.9989 28.4734 23.8892V23.5243C28.5821 23.5394 28.6848 23.6141 28.765 23.764C28.8333 23.462 28.9399 23.289 29.141 23.1425C29.3422 23.289 29.4488 23.462 29.517 23.764C29.5973 23.614 29.7 23.5392 29.8087 23.5243V23.8892C29.7457 23.9988 29.5117 24.2514 29.5117 24.2514L28.7704 24.2514Z" fill="white" stroke="black" stroke-width="0.06075"/>
<path d="M28.6574 24.5302C28.7298 24.2151 28.7921 23.9814 29.1409 23.7445C29.4897 23.9814 29.5519 24.2151 29.6244 24.5302H28.6574Z" fill="white" stroke="black" stroke-width="0.06075"/>
<path d="M28.482 24.7057V24.2493C28.6404 24.3114 28.7835 24.4032 28.8364 24.5054C28.8952 24.252 29.0089 24.1404 29.1504 23.987C29.2919 24.1404 29.3866 24.252 29.4457 24.5054C29.4985 24.4032 29.6416 24.3114 29.8001 24.2493V24.7057H28.482Z" fill="white" stroke="black" stroke-width="0.06075"/>
<path d="M16.9396 26.7388V27.1555H31.2421V26.7387L16.9396 26.7388ZM16.6806 27.1593V27.7027H31.5009V27.1593H16.6806ZM31.5009 27.7027L16.6806 27.7068L16.2474 27.7027V28.4197H31.9343V27.7028L31.5009 27.7027ZM15.811 28.4243L15.8112 29.2687H32.3709L32.3708 28.4243H15.811ZM32.3709 29.2687V29.2701H15.8112V29.2687H15.3746V30.1131H32.8072V29.2687H32.3709Z" fill="white"/>
<path d="M31.5009 27.7027H16.6806V27.1593H31.5009V27.7027ZM31.5009 27.7027L16.6806 27.7068L16.2474 27.7027V28.4197H31.9343V27.7028L31.5009 27.7027ZM15.8112 29.2687L15.811 28.4243H32.3708L32.3709 29.2687M15.8112 29.2687H32.3709M15.8112 29.2687V29.2701H32.3709V29.2687M15.8112 29.2687H15.3746V30.1131H32.8072V29.2687H32.3709M16.9396 26.7388V27.1555H31.2421V26.7387L16.9396 26.7388Z" stroke="black" stroke-width="0.06075"/>
<path d="M18.4919 26.7408H19.5723V30.1115H18.4919V26.7408Z" fill="white" stroke="black" stroke-width="0.06615"/>
<path d="M18.7309 26.7408H19.3328V30.1115H18.7309V26.7408Z" fill="white" stroke="black" stroke-width="0.066015"/>
<path d="M23.5511 26.7408H24.6315V30.1115H23.5511V26.7408Z" fill="white" stroke="black" stroke-width="0.06615"/>
<path d="M23.79 26.7408H24.3918V30.1115H23.79V26.7408Z" fill="white" stroke="black" stroke-width="0.066015"/>
<path d="M28.6021 26.7408H29.6824V30.1115H28.6021V26.7408Z" fill="white" stroke="black" stroke-width="0.06615"/>
<path d="M28.841 26.7408H29.4429V30.1115H28.841V26.7408Z" fill="white" stroke="black" stroke-width="0.066015"/>
<path d="M17.5824 26.3979H30.6146M18.7197 29.6879H19.3437M18.7197 29.266H19.3437M18.7197 28.8441H19.3437M18.7197 28.4222H19.3437M18.7197 28.0004H19.3437M18.7197 27.5785H19.3437M18.7197 27.1566H19.3437M23.7809 29.6885H24.3619M23.7809 29.2665H24.3619M23.7809 28.8443H24.3619M23.7809 28.4222H24.3619M23.7809 28.0002H24.3619M23.7809 27.5781H24.3619M23.7809 27.1559H24.3619M28.8299 29.6879H29.4539M28.8299 29.266H29.4539M28.8299 28.8441H29.4539M28.8299 28.4222H29.4539M28.8299 28.0004H29.4539M28.8299 27.5785H29.4539M28.8299 27.1566H29.4539" stroke="black" stroke-width="0.06075"/>
</g>
<defs>
<clipPath id="clip0_208_2">
<rect width="42.1875" height="27" fill="white" transform="translate(3 11)"/>
</clipPath>
</defs>
</svg>
