<svg width="48" height="48" viewBox="0 0 48 48" fill="none" xmlns="http://www.w3.org/2000/svg">
<path d="M35.6667 11.5333C35.6667 14.037 30.5926 16.0667 24.3333 16.0667C18.0741 16.0667 13 14.037 13 11.5333C13 9.02964 18.0741 7 24.3333 7C30.5926 7 35.6667 9.02964 35.6667 11.5333Z" fill="#FF9447"/>
<path fill-rule="evenodd" clip-rule="evenodd" d="M24.3333 16.8222C30.5926 16.8222 35.6667 15.1309 35.6667 13.0444V20.6C35.6667 22.6864 30.5926 24.3778 24.3333 24.3778C18.0741 24.3778 13 22.6864 13 20.6V13.0444C13 15.1309 18.0741 16.8222 24.3333 16.8222ZM32 21C32.5523 21 33 20.5523 33 20C33 19.4477 32.5523 19 32 19C31.4477 19 31 19.4477 31 20C31 20.5523 31.4477 21 32 21Z" fill="#FF9447"/>
<path fill-rule="evenodd" clip-rule="evenodd" d="M35.6667 21.3556C35.6667 23.442 30.5926 25.1333 24.3333 25.1333C18.0741 25.1333 13 23.442 13 21.3556V28.9111C13 30.9975 18.0741 32.6889 24.3333 32.6889C30.5926 32.6889 35.6667 30.9975 35.6667 28.9111V21.3556ZM33 28C33 28.5523 32.5523 29 32 29C31.4477 29 31 28.5523 31 28C31 27.4477 31.4477 27 32 27C32.5523 27 33 27.4477 33 28Z" fill="#FF9447"/>
<path fill-rule="evenodd" clip-rule="evenodd" d="M35.6667 29.6667C35.6667 31.7531 30.5926 33.4444 24.3333 33.4444C18.0741 33.4444 13 31.7531 13 29.6667V37.2222C13 39.3086 18.0741 41 24.3333 41C30.5926 41 35.6667 39.3086 35.6667 37.2222V29.6667ZM32 37C32.5523 37 33 36.5523 33 36C33 35.4477 32.5523 35 32 35C31.4477 35 31 35.4477 31 36C31 36.5523 31.4477 37 32 37Z" fill="#FF9447"/>
<path d="M35.6667 11.5333C35.6667 14.037 30.5926 16.0667 24.3333 16.0667C18.0741 16.0667 13 14.037 13 11.5333C13 9.02964 18.0741 7 24.3333 7C30.5926 7 35.6667 9.02964 35.6667 11.5333Z" stroke="black" stroke-opacity="0.3" stroke-width="0.0755556"/>
<path fill-rule="evenodd" clip-rule="evenodd" d="M24.3333 16.8222C30.5926 16.8222 35.6667 15.1309 35.6667 13.0444V20.6C35.6667 22.6864 30.5926 24.3778 24.3333 24.3778C18.0741 24.3778 13 22.6864 13 20.6V13.0444C13 15.1309 18.0741 16.8222 24.3333 16.8222ZM32 21C32.5523 21 33 20.5523 33 20C33 19.4477 32.5523 19 32 19C31.4477 19 31 19.4477 31 20C31 20.5523 31.4477 21 32 21Z" stroke="black" stroke-opacity="0.3" stroke-width="0.0755556"/>
<path fill-rule="evenodd" clip-rule="evenodd" d="M35.6667 21.3556C35.6667 23.442 30.5926 25.1333 24.3333 25.1333C18.0741 25.1333 13 23.442 13 21.3556V28.9111C13 30.9975 18.0741 32.6889 24.3333 32.6889C30.5926 32.6889 35.6667 30.9975 35.6667 28.9111V21.3556ZM33 28C33 28.5523 32.5523 29 32 29C31.4477 29 31 28.5523 31 28C31 27.4477 31.4477 27 32 27C32.5523 27 33 27.4477 33 28Z" stroke="black" stroke-opacity="0.3" stroke-width="0.0755556"/>
<path fill-rule="evenodd" clip-rule="evenodd" d="M35.6667 29.6667C35.6667 31.7531 30.5926 33.4444 24.3333 33.4444C18.0741 33.4444 13 31.7531 13 29.6667V37.2222C13 39.3086 18.0741 41 24.3333 41C30.5926 41 35.6667 39.3086 35.6667 37.2222V29.6667ZM32 37C32.5523 37 33 36.5523 33 36C33 35.4477 32.5523 35 32 35C31.4477 35 31 35.4477 31 36C31 36.5523 31.4477 37 32 37Z" stroke="black" stroke-opacity="0.3" stroke-width="0.0755556"/>
</svg>
