<svg width="48" height="48" viewBox="0 0 48 48" fill="none" xmlns="http://www.w3.org/2000/svg">
<mask id="mask0_2129_6" style="mask-type:luminance" maskUnits="userSpaceOnUse" x="9" y="5" width="31" height="39">
<path d="M40 22.7138L29.6667 33.0508L40 43.3878H28.1921L17.855 33.0508L28.1921 22.7138H40ZM28.1921 5L9 24.1921L14.9058 30.0979L40 5H28.1921V5Z" fill="white"/>
</mask>
<g mask="url(#mask0_2129_6)">
<path d="M17.8587 33.0508L23.7608 38.9566L40 22.7137H28.1921L17.8587 33.0508Z" fill="#39CEFD"/>
</g>
<mask id="mask1_2129_6" style="mask-type:luminance" maskUnits="userSpaceOnUse" x="9" y="5" width="31" height="39">
<path d="M40 22.7138L29.6667 33.0508L40 43.3878H28.1921L17.855 33.0508L28.1921 22.7138H40ZM28.1921 5L9 24.1921L14.9058 30.0979L40 5H28.1921V5Z" fill="white"/>
</mask>
<g mask="url(#mask1_2129_6)">
<path d="M28.1921 5H40L14.9058 30.0979L9 24.1921L28.1921 5Z" fill="#39CEFD"/>
</g>
<mask id="mask2_2129_6" style="mask-type:luminance" maskUnits="userSpaceOnUse" x="9" y="5" width="31" height="39">
<path d="M40 22.7138L29.6667 33.0508L40 43.3878H28.1921L17.855 33.0508L28.1921 22.7138H40ZM28.1921 5L9 24.1921L14.9058 30.0979L40 5H28.1921V5Z" fill="white"/>
</mask>
<g mask="url(#mask2_2129_6)">
<path d="M23.7608 38.9566L28.1921 43.3841H40L29.6667 33.0508L23.7608 38.9566Z" fill="#03569B"/>
</g>
<mask id="mask3_2129_6" style="mask-type:luminance" maskUnits="userSpaceOnUse" x="9" y="5" width="31" height="39">
<path d="M40 22.7138L29.6667 33.0508L40 43.3878H28.1921L17.855 33.0508L28.1921 22.7138H40ZM28.1921 5L9 24.1921L14.9058 30.0979L40 5H28.1921V5Z" fill="white"/>
</mask>
<g mask="url(#mask3_2129_6)">
<path d="M32.5198 35.9224L29.6667 33.0508L23.7608 38.9566L32.5198 35.9224Z" fill="url(#paint0_linear_2129_6)"/>
</g>
<mask id="mask4_2129_6" style="mask-type:luminance" maskUnits="userSpaceOnUse" x="9" y="5" width="31" height="39">
<path d="M40 22.7138L29.6667 33.0508L40 43.3878H28.1921L17.855 33.0508L28.1921 22.7138H40ZM28.1921 5L9 24.1921L14.9058 30.0979L40 5H28.1921V5Z" fill="white"/>
</mask>
<g mask="url(#mask4_2129_6)">
<path d="M17.8581 33.0488L23.764 27.1428L29.6704 33.0488L23.764 38.9548L17.8581 33.0488Z" fill="#16B9FD"/>
</g>
<path d="M40 22.7138L29.6667 33.0508L40 43.3878H28.1921L17.855 33.0508L28.1921 22.7138H40ZM28.1921 5L9 24.1921L14.9058 30.0979L40 5H28.1921Z" fill="url(#paint1_radial_2129_6)"/>
<defs>
<linearGradient id="paint0_linear_2129_6" x1="25.4844" y1="40.0963" x2="29.8829" y2="35.6978" gradientUnits="userSpaceOnUse">
<stop stop-color="#1A237E" stop-opacity="0.4"/>
<stop offset="1" stop-color="#1A237E" stop-opacity="0"/>
</linearGradient>
<radialGradient id="paint1_radial_2129_6" cx="0" cy="0" r="1" gradientUnits="userSpaceOnUse" gradientTransform="translate(9.8709 7.6164) scale(46.9628 46.9628)">
<stop stop-color="white" stop-opacity="0.1"/>
<stop offset="1" stop-color="white" stop-opacity="0"/>
</radialGradient>
</defs>
</svg>
