<svg width="48" height="48" viewBox="0 0 48 48" fill="none" xmlns="http://www.w3.org/2000/svg">
<g clip-path="url(#clip0_203_23)">
<path d="M41.4773 24.2045C41.4773 26.5455 41.0625 28.6136 40.233 30.4091C39.392 32.1932 38.2386 33.5852 36.7727 34.5852C35.2955 35.5852 33.6136 36.0795 31.7273 36.0682C30.25 36.0795 28.8864 35.7898 27.6364 35.1989C26.375 34.608 25.3239 33.8011 24.483 32.7784C23.6307 31.7443 23.0909 30.5909 22.8636 29.3182H22.6591C22.2273 30.9886 21.2898 32.3182 19.8466 33.3068C18.392 34.2955 16.7386 34.7841 14.8864 34.7727C13.1136 34.7841 11.5284 34.3352 10.1307 33.4261C8.73295 32.517 7.63068 31.267 6.82386 29.6761C6.01704 28.0739 5.61364 26.25 5.61364 24.2045C5.61364 22.1818 6.01704 20.375 6.82386 18.7841C7.63068 17.1932 8.73295 15.9432 10.1307 15.0341C11.5284 14.1136 13.1136 13.6477 14.8864 13.6364C16.7386 13.6477 18.392 14.1534 19.8466 15.1534C21.2898 16.142 22.2273 17.4545 22.6591 19.0909H22.8636C23.0909 17.8295 23.6307 16.6932 24.483 15.6818C25.3239 14.6705 26.375 13.8636 27.6364 13.2614C28.8864 12.6591 30.25 12.3523 31.7273 12.3409C33.6136 12.3523 35.2955 12.8636 36.7727 13.875C38.2386 14.875 39.392 16.267 40.233 18.0511C41.0625 19.8239 41.4773 21.875 41.4773 24.2045ZM37.7273 24.2045C37.7273 22.625 37.4716 21.2614 36.9602 20.1136C36.4489 18.9659 35.7273 18.0795 34.7955 17.4545C33.8636 16.8295 32.7727 16.5114 31.5227 16.5C30.2045 16.5114 29.0398 16.8523 28.0284 17.5227C27.017 18.1932 26.2216 19.108 25.642 20.267C25.0625 21.4148 24.7727 22.7273 24.7727 24.2045C24.7727 25.6932 25.0625 27.0227 25.642 28.1932C26.2216 29.3523 27.017 30.267 28.0284 30.9375C29.0398 31.5966 30.2045 31.9205 31.5227 31.9091C32.7727 31.9205 33.8636 31.6193 34.7955 31.0057C35.7273 30.3807 36.4489 29.4886 36.9602 28.3295C37.4716 27.1705 37.7273 25.7955 37.7273 24.2045ZM21.1591 24.2045C21.1591 22.9545 20.9091 21.8466 20.4091 20.8807C19.9091 19.9034 19.2102 19.1364 18.3125 18.5795C17.4148 18.0227 16.3636 17.7386 15.1591 17.7273C13.9773 17.7386 12.9489 18.017 12.0739 18.5625C11.1875 19.108 10.5057 19.8636 10.0284 20.8295C9.53977 21.7955 9.29545 22.9205 9.29545 24.2045C9.29545 25.5114 9.53977 26.6534 10.0284 27.6307C10.5057 28.608 11.1875 29.3636 12.0739 29.8977C12.9489 30.4318 13.9773 30.6932 15.1591 30.6818C16.3636 30.6932 17.4148 30.4261 18.3125 29.8807C19.2102 29.3239 19.9091 28.5568 20.4091 27.5795C20.9091 26.6023 21.1591 25.4773 21.1591 24.2045Z" fill="url(#paint0_linear_203_23)"/>
</g>
<defs>
<linearGradient id="paint0_linear_203_23" x1="24" y1="9" x2="24" y2="39" gradientUnits="userSpaceOnUse">
<stop/>
<stop offset="1" stop-color="#666666"/>
</linearGradient>
<clipPath id="clip0_203_23">
<rect width="48" height="48" fill="white"/>
</clipPath>
</defs>
</svg>
