<svg width="48" height="48" viewBox="0 0 48 48" fill="none" xmlns="http://www.w3.org/2000/svg">
<path d="M30.2386 19H27.0682C26.8807 18.0881 26.5526 17.2869 26.0838 16.5966C25.6236 15.9062 25.0611 15.3267 24.3963 14.858C23.7401 14.3807 23.0114 14.0227 22.2102 13.7841C21.4091 13.5455 20.5739 13.4261 19.7045 13.4261C18.1193 13.4261 16.6832 13.8267 15.3963 14.6278C14.1179 15.429 13.0994 16.6094 12.3409 18.169C11.5909 19.7287 11.2159 21.642 11.2159 23.9091C11.2159 26.1761 11.5909 28.0895 12.3409 29.6491C13.0994 31.2088 14.1179 32.3892 15.3963 33.1903C16.6832 33.9915 18.1193 34.392 19.7045 34.392C20.5739 34.392 21.4091 34.2727 22.2102 34.0341C23.0114 33.7955 23.7401 33.4418 24.3963 32.973C25.0611 32.4957 25.6236 31.9119 26.0838 31.2216C26.5526 30.5227 26.8807 29.7216 27.0682 28.8182H30.2386C30 30.1562 29.5653 31.3537 28.9347 32.4105C28.304 33.4673 27.5199 34.3665 26.5824 35.108C25.6449 35.8409 24.5923 36.3991 23.4247 36.7827C22.2656 37.1662 21.0256 37.358 19.7045 37.358C17.4716 37.358 15.4858 36.8125 13.7472 35.7216C12.0085 34.6307 10.6406 33.0795 9.64347 31.0682C8.64631 29.0568 8.14773 26.6705 8.14773 23.9091C8.14773 21.1477 8.64631 18.7614 9.64347 16.75C10.6406 14.7386 12.0085 13.1875 13.7472 12.0966C15.4858 11.0057 17.4716 10.4602 19.7045 10.4602C21.0256 10.4602 22.2656 10.652 23.4247 11.0355C24.5923 11.419 25.6449 11.9815 26.5824 12.723C27.5199 13.456 28.304 14.3509 28.9347 15.4077C29.5653 16.456 30 17.6534 30.2386 19Z" fill="#038F00"/>
<path d="M20.7656 19V27H19.8438V19H20.7656ZM24.2197 27.1406C23.8395 27.1406 23.4945 27.069 23.1846 26.9258C22.8747 26.7799 22.6286 26.5703 22.4463 26.2969C22.264 26.0208 22.1729 25.6875 22.1729 25.2969C22.1729 24.9531 22.2406 24.6745 22.376 24.4609C22.5114 24.2448 22.6924 24.0755 22.9189 23.9531C23.1455 23.8307 23.3955 23.7396 23.6689 23.6797C23.945 23.6172 24.2223 23.5677 24.501 23.5313C24.8656 23.4844 25.1611 23.4492 25.3877 23.4258C25.6169 23.3997 25.7835 23.3568 25.8877 23.2969C25.9945 23.237 26.0479 23.1328 26.0479 22.9844V22.9531C26.0479 22.5677 25.9424 22.2682 25.7314 22.0547C25.5231 21.8411 25.2067 21.7344 24.7822 21.7344C24.3421 21.7344 23.9971 21.8307 23.7471 22.0234C23.4971 22.2161 23.3213 22.4219 23.2197 22.6406L22.3447 22.3281C22.501 21.9635 22.7093 21.6797 22.9697 21.4766C23.2327 21.2708 23.5192 21.1276 23.8291 21.0469C24.1416 20.9635 24.4489 20.9219 24.751 20.9219C24.9437 20.9219 25.165 20.9453 25.415 20.9922C25.6676 21.0365 25.9111 21.1289 26.1455 21.2695C26.3825 21.4102 26.5791 21.6224 26.7354 21.9062C26.8916 22.1901 26.9697 22.5703 26.9697 23.0469V27H26.0479V26.1875H26.001C25.9385 26.3177 25.8343 26.457 25.6885 26.6055C25.5426 26.7539 25.3486 26.8802 25.1064 26.9844C24.8643 27.0885 24.5687 27.1406 24.2197 27.1406ZM24.3604 26.3125C24.7249 26.3125 25.0322 26.2409 25.2822 26.0977C25.5348 25.9544 25.7249 25.7695 25.8525 25.543C25.9827 25.3164 26.0479 25.0781 26.0479 24.8281V23.9844C26.0088 24.0312 25.9229 24.0742 25.79 24.1133C25.6598 24.1497 25.5088 24.1823 25.3369 24.2109C25.1676 24.237 25.0023 24.2604 24.8408 24.2812C24.682 24.2995 24.5531 24.3151 24.4541 24.3281C24.2145 24.3594 23.9906 24.4102 23.7822 24.4805C23.5765 24.5482 23.4098 24.651 23.2822 24.7891C23.1572 24.9245 23.0947 25.1094 23.0947 25.3437C23.0947 25.6641 23.2132 25.9062 23.4502 26.0703C23.6898 26.2318 23.9932 26.3125 24.3604 26.3125ZM29.5742 23.3906V27H28.6523V21H29.543V21.9375H29.6211C29.7617 21.6328 29.9753 21.388 30.2617 21.2031C30.5482 21.0156 30.918 20.9219 31.3711 20.9219C31.7773 20.9219 32.1328 21.0052 32.4375 21.1719C32.7422 21.3359 32.9792 21.5859 33.1484 21.9219C33.3177 22.2552 33.4023 22.6771 33.4023 23.1875V27H32.4805V23.25C32.4805 22.7786 32.3581 22.4115 32.1133 22.1484C31.8685 21.8828 31.5326 21.75 31.1055 21.75C30.8112 21.75 30.5482 21.8138 30.3164 21.9414C30.0872 22.069 29.9063 22.2552 29.7734 22.5C29.6406 22.7448 29.5742 23.0417 29.5742 23.3906ZM37.5088 29.375C37.0635 29.375 36.6807 29.3177 36.3604 29.2031C36.04 29.0911 35.7731 28.9427 35.5596 28.7578C35.3486 28.5755 35.1807 28.3802 35.0557 28.1719L35.79 27.6563C35.8734 27.7656 35.9788 27.8906 36.1064 28.0312C36.234 28.1745 36.4085 28.2982 36.6299 28.4023C36.8538 28.5091 37.1468 28.5625 37.5088 28.5625C37.9932 28.5625 38.3929 28.4453 38.708 28.2109C39.0231 27.9766 39.1807 27.6094 39.1807 27.1094V25.8906H39.1025C39.0348 26 38.9385 26.1354 38.8135 26.2969C38.6911 26.4557 38.514 26.5977 38.2822 26.7227C38.0531 26.8451 37.7432 26.9062 37.3525 26.9062C36.8682 26.9062 36.4333 26.7917 36.0479 26.5625C35.665 26.3333 35.3617 26 35.1377 25.5625C34.9163 25.125 34.8057 24.5937 34.8057 23.9687C34.8057 23.3542 34.9137 22.819 35.1299 22.3633C35.346 21.9049 35.6468 21.5508 36.0322 21.3008C36.4176 21.0482 36.863 20.9219 37.3682 20.9219C37.7588 20.9219 38.0687 20.987 38.2979 21.1172C38.5296 21.2448 38.7067 21.3906 38.8291 21.5547C38.9541 21.7161 39.0505 21.849 39.1182 21.9531H39.2119V21H40.1025V27.1719C40.1025 27.6875 39.9854 28.1068 39.751 28.4297C39.5192 28.7552 39.2067 28.9935 38.8135 29.1445C38.4229 29.2982 37.988 29.375 37.5088 29.375ZM37.4775 26.0781C37.8473 26.0781 38.1598 25.9935 38.415 25.8242C38.6702 25.6549 38.8643 25.4115 38.9971 25.0938C39.1299 24.776 39.1963 24.3958 39.1963 23.9531C39.1963 23.5208 39.1312 23.1393 39.001 22.8086C38.8708 22.4779 38.6781 22.2187 38.4229 22.0312C38.1676 21.8437 37.8525 21.75 37.4775 21.75C37.0869 21.75 36.7614 21.849 36.501 22.0469C36.2432 22.2448 36.0492 22.5104 35.9189 22.8438C35.7913 23.1771 35.7275 23.5469 35.7275 23.9531C35.7275 24.3698 35.7926 24.7383 35.9229 25.0586C36.0557 25.3763 36.251 25.6263 36.5088 25.8086C36.7692 25.9883 37.0921 26.0781 37.4775 26.0781Z" fill="black"/>
</svg>
