<svg width="48" height="48" viewBox="0 0 48 48" fill="none" xmlns="http://www.w3.org/2000/svg">
<g clip-path="url(#clip0_203_26)">
<path d="M14.5341 5.36364V17H12.7727V7.125H12.7045L9.92045 8.94318V7.26136L12.8239 5.36364H14.5341Z" fill="#4200FF"/>
<path d="M30.1193 17V15.7273L34.0568 11.6477C34.4773 11.2045 34.8239 10.8163 35.0966 10.483C35.3731 10.1458 35.5795 9.82576 35.7159 9.52273C35.8523 9.2197 35.9205 8.89773 35.9205 8.55682C35.9205 8.17045 35.8295 7.83712 35.6477 7.55682C35.4659 7.27273 35.2178 7.05492 34.9034 6.90341C34.589 6.74811 34.2348 6.67045 33.8409 6.67045C33.4242 6.67045 33.0606 6.75568 32.75 6.92614C32.4394 7.09659 32.2008 7.33712 32.0341 7.64773C31.8674 7.95833 31.7841 8.32197 31.7841 8.73864H30.108C30.108 8.0303 30.2708 7.41098 30.5966 6.88068C30.9223 6.35038 31.3693 5.93939 31.9375 5.64773C32.5057 5.35227 33.1515 5.20455 33.875 5.20455C34.6061 5.20455 35.25 5.35038 35.8068 5.64205C36.3674 5.92992 36.8049 6.32386 37.1193 6.82386C37.4337 7.32008 37.5909 7.88068 37.5909 8.50568C37.5909 8.9375 37.5095 9.35985 37.3466 9.77273C37.1875 10.1856 36.9091 10.6458 36.5114 11.1534C36.1136 11.6572 35.5606 12.2689 34.8523 12.9886L32.5398 15.4091V15.4943H37.7784V17H30.1193Z" fill="#53DC00"/>
<path d="M8.60227 32.9261C8.60227 30.9754 8.93845 29.233 9.6108 27.6989C10.2831 26.1742 11.2159 24.9669 12.4091 24.0767C13.6117 23.196 15.0038 22.7225 16.5852 22.6562V27.1165C15.7235 27.1733 14.9754 27.4621 14.3409 27.983C13.7159 28.5133 13.233 29.2045 12.892 30.0568C12.5511 30.9091 12.3807 31.8561 12.3807 32.8977C12.3807 34.0436 12.5795 35.0568 12.9773 35.9375C13.375 36.8277 13.929 37.5237 14.6392 38.0256C15.3589 38.5275 16.1875 38.7784 17.125 38.7784C18.1004 38.7784 18.9574 38.5275 19.696 38.0256C20.4441 37.5331 21.0313 36.8087 21.4574 35.8523C21.8835 34.9053 22.0966 33.7595 22.0966 32.4148V29.9574L25.6761 29.9574V32.4148C25.6761 33.4943 25.8703 34.4413 26.2585 35.2557C26.6468 36.0795 27.1866 36.7235 27.8778 37.1875C28.5786 37.6515 29.3977 37.8835 30.3352 37.8835C31.2348 37.8835 32.0161 37.6799 32.679 37.2727C33.3513 36.875 33.8769 36.3068 34.2557 35.5682C34.6345 34.839 34.8239 33.9773 34.8239 32.983C34.8239 32.036 34.6487 31.1506 34.2983 30.3267C33.9574 29.5123 33.465 28.8494 32.821 28.3381C32.1866 27.8267 31.4242 27.5521 30.5341 27.5142V23.267C32.1061 23.3144 33.4886 23.7784 34.6818 24.6591C35.875 25.5492 36.8078 26.7235 37.4801 28.1818C38.1525 29.6402 38.4886 31.2595 38.4886 33.0398C38.4886 34.9053 38.1241 36.5152 37.3949 37.8693C36.6752 39.233 35.714 40.2841 34.5114 41.0227C33.3087 41.7708 31.9924 42.1402 30.5625 42.1307C28.9337 42.1402 27.5511 41.6856 26.4148 40.767C25.2784 39.858 24.5161 38.6458 24.1278 37.1307H23.9006C23.607 39.0625 22.84 40.5587 21.5994 41.6193C20.3589 42.6894 18.8201 43.2197 16.983 43.2102C15.3826 43.2197 13.9479 42.7746 12.679 41.875C11.41 40.9848 10.411 39.768 9.68182 38.2244C8.96212 36.6809 8.60227 34.9148 8.60227 32.9261Z" fill="#FF001F"/>
</g>
<defs>
<clipPath id="clip0_203_26">
<rect width="48" height="48" fill="white"/>
</clipPath>
</defs>
</svg>
