<svg width="48" height="48" viewBox="0 0 48 48" fill="none" xmlns="http://www.w3.org/2000/svg">
<g clip-path="url(#clip0_203_32)">
<mask id="path-1-outside-1_203_32" maskUnits="userSpaceOnUse" x="10" y="4" width="29" height="39" fill="black">
<rect fill="white" x="10" y="4" width="29" height="39"/>
<path d="M24.5114 41.5795C21.8182 41.5682 19.517 40.858 17.608 39.4489C15.6989 38.0398 14.2386 35.9886 13.2273 33.2955C12.2159 30.6023 11.7102 27.358 11.7102 23.5625C11.7102 19.7784 12.2159 16.5455 13.2273 13.8636C14.25 11.1818 15.7159 9.13636 17.625 7.72727C19.5455 6.31818 21.8409 5.61364 24.5114 5.61364C27.1818 5.61364 29.4716 6.32386 31.3807 7.74432C33.2898 9.15341 34.75 11.1989 35.7614 13.8807C36.7841 16.5511 37.2955 19.7784 37.2955 23.5625C37.2955 27.3693 36.7898 30.6193 35.7784 33.3125C34.767 35.9943 33.3068 38.0455 31.3977 39.4659C29.4886 40.875 27.1932 41.5795 24.5114 41.5795ZM24.5114 37.0284C26.875 37.0284 28.7216 35.875 30.0511 33.5682C31.392 31.2614 32.0625 27.9261 32.0625 23.5625C32.0625 20.6648 31.7557 18.2159 31.142 16.2159C30.5398 14.2045 29.6705 12.6818 28.5341 11.6477C27.4091 10.6023 26.0682 10.0795 24.5114 10.0795C22.1591 10.0795 20.3125 11.2386 18.9716 13.5568C17.6307 15.875 16.9545 19.2102 16.9432 23.5625C16.9432 26.4716 17.2443 28.9318 17.8466 30.9432C18.4602 32.9432 19.3295 34.4602 20.4545 35.4943C21.5795 36.517 22.9318 37.0284 24.5114 37.0284Z"/>
</mask>
<path d="M24.5114 41.5795C21.8182 41.5682 19.517 40.858 17.608 39.4489C15.6989 38.0398 14.2386 35.9886 13.2273 33.2955C12.2159 30.6023 11.7102 27.358 11.7102 23.5625C11.7102 19.7784 12.2159 16.5455 13.2273 13.8636C14.25 11.1818 15.7159 9.13636 17.625 7.72727C19.5455 6.31818 21.8409 5.61364 24.5114 5.61364C27.1818 5.61364 29.4716 6.32386 31.3807 7.74432C33.2898 9.15341 34.75 11.1989 35.7614 13.8807C36.7841 16.5511 37.2955 19.7784 37.2955 23.5625C37.2955 27.3693 36.7898 30.6193 35.7784 33.3125C34.767 35.9943 33.3068 38.0455 31.3977 39.4659C29.4886 40.875 27.1932 41.5795 24.5114 41.5795ZM24.5114 37.0284C26.875 37.0284 28.7216 35.875 30.0511 33.5682C31.392 31.2614 32.0625 27.9261 32.0625 23.5625C32.0625 20.6648 31.7557 18.2159 31.142 16.2159C30.5398 14.2045 29.6705 12.6818 28.5341 11.6477C27.4091 10.6023 26.0682 10.0795 24.5114 10.0795C22.1591 10.0795 20.3125 11.2386 18.9716 13.5568C17.6307 15.875 16.9545 19.2102 16.9432 23.5625C16.9432 26.4716 17.2443 28.9318 17.8466 30.9432C18.4602 32.9432 19.3295 34.4602 20.4545 35.4943C21.5795 36.517 22.9318 37.0284 24.5114 37.0284Z" fill="url(#paint0_linear_203_32)"/>
<path d="M24.5114 41.5795L24.5071 42.5795H24.5114V41.5795ZM13.2273 33.2955L14.1634 32.9439L14.1634 32.9439L13.2273 33.2955ZM13.2273 13.8636L12.2929 13.5073L12.2916 13.5108L13.2273 13.8636ZM17.625 7.72727L17.0334 6.92102L17.0311 6.9227L17.625 7.72727ZM31.3807 7.74432L30.7837 8.54661L30.7868 8.54889L31.3807 7.74432ZM35.7614 13.8807L34.8257 14.2335L34.8275 14.2383L35.7614 13.8807ZM35.7784 33.3125L36.7141 33.6654L36.7146 33.6641L35.7784 33.3125ZM31.3977 39.4659L31.9916 40.2705L31.9947 40.2682L31.3977 39.4659ZM30.0511 33.5682L29.1866 33.0656L29.1847 33.0688L30.0511 33.5682ZM31.142 16.2159L30.184 16.5028L30.186 16.5092L31.142 16.2159ZM28.5341 11.6477L27.8533 12.3803L27.8611 12.3873L28.5341 11.6477ZM18.9716 13.5568L18.106 13.0561L18.106 13.0561L18.9716 13.5568ZM16.9432 23.5625L15.9432 23.5599V23.5625H16.9432ZM17.8466 30.9432L16.8886 31.23L16.8906 31.2365L17.8466 30.9432ZM20.4545 35.4943L19.7778 36.2306L19.7819 36.2343L20.4545 35.4943ZM24.5156 40.5796C22.0048 40.569 19.9175 39.9106 18.2018 38.6443L17.0141 40.2534C19.1166 41.8053 21.6316 42.5674 24.5071 42.5795L24.5156 40.5796ZM18.2018 38.6443C16.4785 37.3723 15.1214 35.4949 14.1634 32.9439L12.2911 33.647C13.3558 36.4823 14.9193 38.7072 17.0141 40.2534L18.2018 38.6443ZM14.1634 32.9439C13.2054 30.3926 12.7102 27.2741 12.7102 23.5625H10.7102C10.7102 27.4418 11.2264 30.8119 12.2911 33.647L14.1634 32.9439ZM12.7102 23.5625C12.7102 19.8625 13.2053 16.7558 14.1629 14.2165L12.2916 13.5108C11.2265 16.3351 10.7102 19.6943 10.7102 23.5625H12.7102ZM14.1616 14.22C15.1305 11.6793 16.4935 9.80534 18.2189 8.53185L17.0311 6.9227C14.9384 8.46738 13.3695 10.6844 12.2929 13.5073L14.1616 14.22ZM18.2166 8.53353C19.9449 7.26539 22.0267 6.61364 24.5114 6.61364V4.61364C21.6551 4.61364 19.146 5.37098 17.0334 6.92102L18.2166 8.53353ZM24.5114 6.61364C26.9943 6.61364 29.0681 7.27006 30.7837 8.5466L31.9776 6.94203C29.8751 5.37766 27.3693 4.61364 24.5114 4.61364V6.61364ZM30.7868 8.54889C32.5112 9.82163 33.8681 11.6942 34.8257 14.2335L36.697 13.5278C35.6319 10.7035 34.0684 8.48518 31.9745 6.93974L30.7868 8.54889ZM34.8275 14.2383C35.7949 16.7643 36.2955 19.8634 36.2955 23.5625H38.2955C38.2955 19.6935 37.7733 16.338 36.6952 13.523L34.8275 14.2383ZM36.2955 23.5625C36.2955 27.2859 35.8002 30.41 34.8422 32.9609L36.7146 33.6641C37.7793 30.8287 38.2955 27.4528 38.2955 23.5625H36.2955ZM34.8427 32.9596C33.885 35.4993 32.5274 37.379 30.8008 38.6636L31.9947 40.2682C34.0863 38.7119 35.6491 36.4893 36.7141 33.6654L34.8427 32.9596ZM30.8039 38.6613C29.0888 39.9272 27.0085 40.5795 24.5114 40.5795V42.5795C27.3778 42.5795 29.8885 41.8228 31.9916 40.2705L30.8039 38.6613ZM24.5114 38.0284C27.2838 38.0284 29.4366 36.6369 30.9175 34.0675L29.1847 33.0688C28.0065 35.1131 26.4662 36.0284 24.5114 36.0284V38.0284ZM30.9157 34.0707C32.3849 31.5432 33.0625 28.0023 33.0625 23.5625H31.0625C31.0625 27.8499 30.3992 30.9795 29.1866 33.0656L30.9157 34.0707ZM33.0625 23.5625C33.0625 20.6006 32.7497 18.0463 32.0981 15.9226L30.186 16.5092C30.7617 18.3855 31.0625 20.7289 31.0625 23.5625H33.0625ZM32.1 15.9291C31.464 13.805 30.5184 12.1014 29.2071 10.9081L27.8611 12.3873C28.8225 13.2623 29.6155 14.604 30.1841 16.5028L32.1 15.9291ZM29.2148 10.9152C27.902 9.69523 26.3169 9.07954 24.5114 9.07954V11.0795C25.8195 11.0795 26.9161 11.5093 27.8534 12.3803L29.2148 10.9152ZM24.5114 9.07954C21.7465 9.07954 19.5959 10.4803 18.106 13.0561L19.8372 14.0575C21.0291 11.997 22.5717 11.0795 24.5114 11.0795V9.07954ZM18.106 13.0561C16.6388 15.5925 15.9548 19.1307 15.9432 23.5599L17.9432 23.5651C17.9543 19.2898 18.6225 16.1575 19.8372 14.0575L18.106 13.0561ZM15.9432 23.5625C15.9432 26.5343 16.2501 29.0975 16.8886 31.23L18.8046 30.6563C18.2386 28.7661 17.9432 26.4089 17.9432 23.5625H15.9432ZM16.8906 31.2365C17.5379 33.3462 18.4824 35.0398 19.7778 36.2305L21.1313 34.7581C20.1767 33.8806 19.3826 32.5401 18.8026 30.6499L16.8906 31.2365ZM19.7819 36.2343C21.0987 37.4313 22.6937 38.0284 24.5114 38.0284V36.0284C23.1699 36.0284 22.0604 35.6027 21.1272 34.7544L19.7819 36.2343Z" fill="black" mask="url(#path-1-outside-1_203_32)"/>
<mask id="path-3-outside-2_203_32" maskUnits="userSpaceOnUse" x="20" y="20" width="8" height="10" fill="black">
<rect fill="white" x="20" y="20" width="8" height="10"/>
<path d="M26.7614 23.0526L25.6065 23.2571C25.5582 23.1094 25.4815 22.9687 25.3764 22.8352C25.2741 22.7017 25.1349 22.5923 24.9588 22.5071C24.7827 22.4219 24.5625 22.3793 24.2983 22.3793C23.9375 22.3793 23.6364 22.4602 23.3949 22.6222C23.1534 22.7812 23.0327 22.9872 23.0327 23.2401C23.0327 23.4588 23.1136 23.6349 23.2756 23.7685C23.4375 23.902 23.6989 24.0114 24.0597 24.0966L25.0994 24.3352C25.7017 24.4744 26.1506 24.6889 26.446 24.9787C26.7415 25.2685 26.8892 25.6449 26.8892 26.108C26.8892 26.5 26.7756 26.8494 26.5483 27.1562C26.3239 27.4602 26.0099 27.6989 25.6065 27.8722C25.206 28.0455 24.7415 28.1321 24.2131 28.1321C23.4801 28.1321 22.8821 27.9759 22.419 27.6634C21.956 27.348 21.6719 26.9006 21.5668 26.321L22.7983 26.1335C22.875 26.4545 23.0327 26.6974 23.2713 26.8622C23.5099 27.0241 23.821 27.1051 24.2045 27.1051C24.6222 27.1051 24.956 27.0185 25.206 26.8452C25.456 26.669 25.581 26.4545 25.581 26.2017C25.581 25.9972 25.5043 25.8253 25.3509 25.6861C25.2003 25.5469 24.9688 25.4418 24.6562 25.3707L23.5483 25.1278C22.9375 24.9886 22.4858 24.767 22.1932 24.4631C21.9034 24.1591 21.7585 23.7741 21.7585 23.3082C21.7585 22.9219 21.8665 22.5838 22.0824 22.294C22.2983 22.0043 22.5966 21.7784 22.9773 21.6165C23.358 21.4517 23.794 21.3693 24.2855 21.3693C24.9929 21.3693 25.5497 21.5227 25.956 21.8295C26.3622 22.1335 26.6307 22.5412 26.7614 23.0526Z"/>
</mask>
<path d="M26.7614 23.0526L25.6065 23.2571C25.5582 23.1094 25.4815 22.9687 25.3764 22.8352C25.2741 22.7017 25.1349 22.5923 24.9588 22.5071C24.7827 22.4219 24.5625 22.3793 24.2983 22.3793C23.9375 22.3793 23.6364 22.4602 23.3949 22.6222C23.1534 22.7812 23.0327 22.9872 23.0327 23.2401C23.0327 23.4588 23.1136 23.6349 23.2756 23.7685C23.4375 23.902 23.6989 24.0114 24.0597 24.0966L25.0994 24.3352C25.7017 24.4744 26.1506 24.6889 26.446 24.9787C26.7415 25.2685 26.8892 25.6449 26.8892 26.108C26.8892 26.5 26.7756 26.8494 26.5483 27.1562C26.3239 27.4602 26.0099 27.6989 25.6065 27.8722C25.206 28.0455 24.7415 28.1321 24.2131 28.1321C23.4801 28.1321 22.8821 27.9759 22.419 27.6634C21.956 27.348 21.6719 26.9006 21.5668 26.321L22.7983 26.1335C22.875 26.4545 23.0327 26.6974 23.2713 26.8622C23.5099 27.0241 23.821 27.1051 24.2045 27.1051C24.6222 27.1051 24.956 27.0185 25.206 26.8452C25.456 26.669 25.581 26.4545 25.581 26.2017C25.581 25.9972 25.5043 25.8253 25.3509 25.6861C25.2003 25.5469 24.9688 25.4418 24.6562 25.3707L23.5483 25.1278C22.9375 24.9886 22.4858 24.767 22.1932 24.4631C21.9034 24.1591 21.7585 23.7741 21.7585 23.3082C21.7585 22.9219 21.8665 22.5838 22.0824 22.294C22.2983 22.0043 22.5966 21.7784 22.9773 21.6165C23.358 21.4517 23.794 21.3693 24.2855 21.3693C24.9929 21.3693 25.5497 21.5227 25.956 21.8295C26.3622 22.1335 26.6307 22.5412 26.7614 23.0526Z" fill="#EF9E00"/>
<path d="M26.7614 23.0526L26.9358 24.0372L27.9971 23.8492L27.7302 22.805L26.7614 23.0526ZM25.6065 23.2571L24.656 23.5678L24.9259 24.3932L25.7809 24.2418L25.6065 23.2571ZM25.3764 22.8352L24.5825 23.4434L24.5907 23.4538L25.3764 22.8352ZM24.9588 22.5071L25.3944 21.6069L25.3944 21.6069L24.9588 22.5071ZM23.3949 22.6222L23.9451 23.4572L23.9518 23.4527L23.3949 22.6222ZM24.0597 24.0966L23.8298 25.0698L23.836 25.0713L24.0597 24.0966ZM25.0994 24.3352L25.3246 23.3609L25.3231 23.3606L25.0994 24.3352ZM26.446 24.9787L25.7458 25.6926L25.7458 25.6926L26.446 24.9787ZM26.5483 27.1562L25.7447 26.561L25.7438 26.5623L26.5483 27.1562ZM25.6065 27.8722L25.2118 26.9533L25.2095 26.9544L25.6065 27.8722ZM22.419 27.6634L21.8562 28.4899L21.8596 28.4923L22.419 27.6634ZM21.5668 26.321L21.4162 25.3324L20.3992 25.4873L20.5828 26.4995L21.5668 26.321ZM22.7983 26.1335L23.7709 25.9011L23.5571 25.0065L22.6478 25.1449L22.7983 26.1335ZM23.2713 26.8622L22.7031 27.6851L22.7098 27.6897L23.2713 26.8622ZM25.206 26.8452L25.7757 27.6671L25.7819 27.6627L25.206 26.8452ZM25.3509 25.6861L24.672 26.4204L24.6789 26.4266L25.3509 25.6861ZM24.6562 25.3707L24.8779 24.3956L24.8704 24.3939L24.6562 25.3707ZM23.5483 25.1278L23.3261 26.1029L23.3342 26.1046L23.5483 25.1278ZM22.1932 24.4631L21.4694 25.1531L21.4727 25.1566L22.1932 24.4631ZM22.0824 22.294L21.2805 21.6966L21.2805 21.6966L22.0824 22.294ZM22.9773 21.6165L23.3687 22.5367L23.3745 22.5342L22.9773 21.6165ZM25.956 21.8295L25.3533 22.6275L25.3569 22.6302L25.956 21.8295ZM26.587 22.0679L25.4321 22.2724L25.7809 24.2418L26.9358 24.0372L26.587 22.0679ZM26.557 22.9464C26.469 22.6772 26.333 22.4337 26.1622 22.2167L24.5907 23.4538C24.63 23.5038 24.6474 23.5415 24.656 23.5678L26.557 22.9464ZM26.1703 22.2272C25.9587 21.9508 25.6881 21.7491 25.3944 21.6069L24.5232 23.4073C24.5533 23.4218 24.5699 23.4334 24.5775 23.4394C24.5846 23.445 24.585 23.4465 24.5825 23.4433L26.1703 22.2272ZM25.3944 21.6069C25.0435 21.4372 24.6632 21.3793 24.2983 21.3793V23.3793C24.3776 23.3793 24.434 23.3857 24.4716 23.393C24.5087 23.4002 24.5235 23.4074 24.5232 23.4073L25.3944 21.6069ZM24.2983 21.3793C23.7872 21.3793 23.28 21.4952 22.8379 21.7916L23.9518 23.4527C23.9928 23.4253 24.0878 23.3793 24.2983 23.3793V21.3793ZM22.8447 21.7871C22.3696 22.1001 22.0327 22.5981 22.0327 23.2401H24.0327C24.0327 23.2805 24.0208 23.3421 23.9859 23.4017C23.9541 23.456 23.9257 23.47 23.945 23.4572L22.8447 21.7871ZM22.0327 23.2401C22.0327 23.7429 22.2361 24.2075 22.6394 24.54L23.9117 22.9969C23.9373 23.018 23.9744 23.0586 24.002 23.1186C24.029 23.1774 24.0327 23.2238 24.0327 23.2401H22.0327ZM22.6394 24.54C22.9781 24.8193 23.4175 24.9724 23.8298 25.0698L24.2896 23.1234C24.1472 23.0898 24.0465 23.0564 23.9791 23.0282C23.9094 22.999 23.896 22.984 23.9117 22.9969L22.6394 24.54ZM23.836 25.0713L24.8757 25.3099L25.3231 23.3606L24.2834 23.1219L23.836 25.0713ZM24.8742 25.3095C25.3797 25.4264 25.6313 25.5803 25.7458 25.6926L27.1462 24.2648C26.6699 23.7975 26.0237 23.5225 25.3246 23.3609L24.8742 25.3095ZM25.7458 25.6926C25.8259 25.7711 25.8892 25.8784 25.8892 26.108H27.8892C27.8892 25.4113 27.6571 24.7658 27.1462 24.2648L25.7458 25.6926ZM25.8892 26.108C25.8892 26.2918 25.8408 26.4313 25.7447 26.561L27.3519 27.7515C27.7103 27.2675 27.8892 26.7082 27.8892 26.108H25.8892ZM25.7438 26.5623C25.6408 26.7018 25.479 26.8386 25.2118 26.9533L26.0012 28.791C26.5409 28.5591 27.007 28.2186 27.3528 27.7502L25.7438 26.5623ZM25.2095 26.9544C24.9577 27.0633 24.633 27.1321 24.2131 27.1321V29.1321C24.8499 29.1321 25.4542 29.0276 26.0036 28.79L25.2095 26.9544ZM24.2131 27.1321C23.6181 27.1321 23.2318 27.0054 22.9784 26.8344L21.8596 28.4923C22.5324 28.9463 23.3421 29.1321 24.2131 29.1321V27.1321ZM22.9819 26.8368C22.7527 26.6808 22.6107 26.4735 22.5507 26.1426L20.5828 26.4995C20.733 27.3277 21.1592 28.0153 21.8562 28.4899L22.9819 26.8368ZM21.7173 27.3096L22.9488 27.1221L22.6478 25.1449L21.4162 25.3324L21.7173 27.3096ZM21.8257 26.3659C21.9512 26.8914 22.2333 27.3607 22.7031 27.6851L23.8395 26.0393C23.8321 26.0342 23.7988 26.0177 23.7709 25.9011L21.8257 26.3659ZM22.7098 27.6897C23.1607 27.9957 23.6857 28.1051 24.2045 28.1051V26.1051C23.9563 26.1051 23.8592 26.0526 23.8328 26.0347L22.7098 27.6897ZM24.2045 28.1051C24.7518 28.1051 25.3064 27.9923 25.7757 27.667L24.6363 26.0233C24.6055 26.0446 24.4925 26.1051 24.2045 26.1051V28.1051ZM25.7819 27.6627C26.2346 27.3437 26.581 26.8501 26.581 26.2017H24.581C24.581 26.1816 24.5836 26.1554 24.5915 26.1258C24.5994 26.096 24.6109 26.0698 24.6232 26.0487C24.6478 26.0065 24.6641 26.0036 24.63 26.0277L25.7819 27.6627ZM26.581 26.2017C26.581 25.711 26.3821 25.2715 26.0228 24.9455L24.6789 26.4266C24.6634 26.4126 24.6338 26.3797 24.6102 26.3269C24.5866 26.2738 24.581 26.2275 24.581 26.2017H26.581ZM26.0297 24.9518C25.6976 24.6447 25.2737 24.4856 24.8779 24.3956L24.4346 26.3459C24.5411 26.3701 24.6102 26.3949 24.6509 26.4134C24.6917 26.4319 24.6914 26.4383 24.672 26.4204L26.0297 24.9518ZM24.8704 24.3939L23.7624 24.151L23.3342 26.1046L24.4421 26.3475L24.8704 24.3939ZM23.7705 24.1528C23.2631 24.0372 23.0205 23.8806 22.9136 23.7696L21.4727 25.1566C21.9511 25.6535 22.6119 25.9401 23.3261 26.1028L23.7705 24.1528ZM22.917 23.7731C22.8245 23.6761 22.7585 23.5478 22.7585 23.3082H20.7585C20.7585 24.0005 20.9823 24.6421 21.4694 25.1531L22.917 23.7731ZM22.7585 23.3082C22.7585 23.1213 22.8061 22.9964 22.8843 22.8915L21.2805 21.6966C20.9268 22.1712 20.7585 22.7224 20.7585 23.3082H22.7585ZM22.8843 22.8915C22.9798 22.7633 23.127 22.6395 23.3687 22.5367L22.5858 20.6963C22.0662 20.9173 21.6168 21.2452 21.2805 21.6966L22.8843 22.8915ZM23.3745 22.5342C23.6088 22.4328 23.9058 22.3693 24.2855 22.3693V20.3693C23.6823 20.3693 23.1071 20.4706 22.5801 20.6988L23.3745 22.5342ZM24.2855 22.3693C24.8584 22.3693 25.1769 22.4943 25.3533 22.6275L26.5586 21.0316C25.9226 20.5512 25.1274 20.3693 24.2855 20.3693V22.3693ZM25.3569 22.6302C25.5726 22.7916 25.7159 23.0003 25.7925 23.3002L27.7302 22.805C27.5455 22.0821 27.1519 21.4754 26.5551 21.0289L25.3569 22.6302Z" fill="black" mask="url(#path-3-outside-2_203_32)"/>
</g>
<defs>
<linearGradient id="paint0_linear_203_32" x1="24.5" y1="-5" x2="24.5" y2="53" gradientUnits="userSpaceOnUse">
<stop stop-color="#E4FFAC"/>
<stop offset="1" stop-color="#0083CD"/>
</linearGradient>
<clipPath id="clip0_203_32">
<rect width="48" height="48" fill="white"/>
</clipPath>
</defs>
</svg>
