<svg width="48" height="48" viewBox="0 0 48 48" fill="none" xmlns="http://www.w3.org/2000/svg">
<path d="M38.9979 17.3094C38.9961 17.0077 38.9928 16.7061 38.9845 16.4041C38.9669 15.747 38.928 15.084 38.8113 14.4339C38.6928 13.7738 38.499 13.1599 38.1937 12.5602C37.894 11.9713 37.5023 11.4324 37.0349 10.965C36.5677 10.4977 36.0288 10.106 35.4396 9.80613C34.8404 9.50119 34.2265 9.30752 33.5669 9.18902C32.9165 9.07188 32.2535 9.03329 31.5959 9.01551C31.294 9.00732 30.9924 9.00389 30.6906 9.00202C30.3323 9 29.9738 9 29.6157 9H21.6743H18.3843C18.0258 9 17.6678 9 17.3096 9.00207C17.0077 9.00394 16.7057 9.00737 16.4043 9.01556C16.2399 9.02 16.0752 9.02576 15.9104 9.03369C15.416 9.05753 14.9208 9.10123 14.4332 9.18907C13.9386 9.27797 13.4695 9.4091 13.0132 9.59777C12.8611 9.66061 12.7103 9.72991 12.5605 9.80613C12.1186 10.031 11.7049 10.3076 11.3287 10.6289C11.2032 10.7361 11.082 10.8482 10.9652 10.965C10.4977 11.4323 10.1059 11.9713 9.80625 12.5602C9.50095 13.1599 9.30749 13.7737 9.18889 14.4339C9.0722 15.0839 9.03341 15.7469 9.01573 16.404C9.00744 16.7061 9.00396 17.0076 9.00199 17.3094C8.99972 17.6677 9.00002 18.0261 9.00002 18.3843V23.2749V29.6155C9.00002 29.9741 8.99967 30.3322 9.00199 30.6908C9.00396 30.9925 9.00744 31.294 9.01573 31.5956C9.03341 32.253 9.07215 32.9162 9.18889 33.5659C9.30749 34.2259 9.50095 34.8403 9.80625 35.4398C10.1059 36.0289 10.4977 36.5677 10.9652 37.0348C11.4323 37.5024 11.9713 37.894 12.5606 38.1941C13.1598 38.4991 13.7737 38.6925 14.4334 38.811C15.0834 38.928 15.7469 38.9669 16.4043 38.9845C16.7058 38.9925 17.0078 38.9961 17.3097 38.9978C17.6678 39.0004 18.0259 39 18.3844 39H29.6157C29.9738 39 30.3323 39.0004 30.6905 38.9978C30.9923 38.9961 31.2939 38.9925 31.5959 38.9845C32.2534 38.9669 32.9165 38.9279 33.5669 38.811C34.2264 38.6925 34.8403 38.499 35.4395 38.1941C36.0287 37.8941 36.5676 37.5024 37.0349 37.0348C37.5022 36.5676 37.8941 36.0289 38.1937 35.4398C38.499 34.8403 38.6927 34.2259 38.8112 33.5659C38.928 32.9162 38.9668 32.253 38.9844 31.5956C38.9927 31.294 38.996 30.9925 38.9979 30.6908C39.0002 30.3322 39 29.9741 39 29.6155V18.3843C39 18.0261 39.0002 17.6677 38.9979 17.3094Z" fill="#F05138"/>
<path d="M32.7716 27.5183C32.7709 27.5174 32.7703 27.5168 32.7695 27.5159C32.8027 27.403 32.8369 27.2907 32.866 27.1749C34.1111 22.2141 31.0722 16.3491 25.9298 13.261C28.1833 16.316 29.1797 20.0162 28.2944 23.2522C28.2155 23.5408 28.1206 23.8178 28.0156 24.087C27.9018 24.0122 27.7583 23.9273 27.5657 23.8211C27.5657 23.8211 22.4503 20.6627 16.9061 15.0762C16.7606 14.9296 19.8625 19.5097 23.3828 23.2289C21.7242 22.2981 17.1021 18.9351 14.176 16.257C14.5355 16.8565 14.9631 17.4338 15.4331 17.9896C17.8767 21.0886 21.0634 24.9121 24.8812 27.8482C22.1987 29.4897 18.4084 29.6174 14.6346 27.8499C13.7011 27.4125 12.8236 26.8846 12.0113 26.285C13.6088 28.8401 16.0691 31.0447 19.0636 32.3317C22.6346 33.8664 26.1857 33.7623 28.8305 32.3569L28.8284 32.3599C28.8405 32.3523 28.8559 32.344 28.8684 32.3362C28.977 32.2778 29.0848 32.2184 29.1902 32.1556C30.461 31.496 32.971 30.8268 34.3182 33.4481C34.6481 34.0896 35.3492 30.6899 32.7716 27.5183Z" fill="white"/>
</svg>
