<svg width="48" height="48" viewBox="0 0 48 48" fill="none" xmlns="http://www.w3.org/2000/svg">
<path d="M23.5 4L42 13.3889V33.25L23.5 43L5 33.25V13.3889L23.5 4Z" fill="#3D0063"/>
<path d="M27.1591 20H25.0455C24.9205 19.392 24.7017 18.858 24.3892 18.3977C24.0824 17.9375 23.7074 17.5511 23.2642 17.2386C22.8267 16.9205 22.3409 16.6818 21.8068 16.5227C21.2727 16.3636 20.7159 16.2841 20.1364 16.2841C19.0795 16.2841 18.1222 16.5511 17.2642 17.0852C16.4119 17.6193 15.733 18.4062 15.2273 19.446C14.7273 20.4858 14.4773 21.7614 14.4773 23.2727C14.4773 24.7841 14.7273 26.0597 15.2273 27.0994C15.733 28.1392 16.4119 28.9261 17.2642 29.4602C18.1222 29.9943 19.0795 30.2614 20.1364 30.2614C20.7159 30.2614 21.2727 30.1818 21.8068 30.0227C22.3409 29.8636 22.8267 29.6278 23.2642 29.3153C23.7074 28.9972 24.0824 28.608 24.3892 28.1477C24.7017 27.6818 24.9205 27.1477 25.0455 26.5455H27.1591C27 27.4375 26.7102 28.2358 26.2898 28.9403C25.8693 29.6449 25.3466 30.2443 24.7216 30.7386C24.0966 31.2273 23.3949 31.5994 22.6165 31.8551C21.8438 32.1108 21.017 32.2386 20.1364 32.2386C18.6477 32.2386 17.3239 31.875 16.1648 31.1477C15.0057 30.4205 14.0938 29.3864 13.429 28.0455C12.7642 26.7045 12.4318 25.1136 12.4318 23.2727C12.4318 21.4318 12.7642 19.8409 13.429 18.5C14.0938 17.1591 15.0057 16.125 16.1648 15.3977C17.3239 14.6705 18.6477 14.3068 20.1364 14.3068C21.017 14.3068 21.8438 14.4347 22.6165 14.6903C23.3949 14.946 24.0966 15.321 24.7216 15.8153C25.3466 16.304 25.8693 16.9006 26.2898 17.6051C26.7102 18.304 27 19.1023 27.1591 20Z" fill="white"/>
<path d="M32.8281 30L34.1406 22H34.9219L33.6094 30H32.8281ZM29.1875 27.7812L29.3125 27H35.2813L35.1563 27.7812H29.1875ZM30.0156 30L31.3281 22H32.1094L30.7969 30H30.0156ZM29.6563 25L29.7812 24.2187H35.75L35.625 25H29.6563Z" fill="white"/>
</svg>
