<svg width="48" height="48" viewBox="0 0 48 48" fill="none" xmlns="http://www.w3.org/2000/svg">
<path fill-rule="evenodd" clip-rule="evenodd" d="M21.7113 14.4766C21.4723 14.2826 21.1723 14.1646 20.8669 14.2032C15.1757 14.923 11 17.8051 11 26.6926C11 33.1483 15.5313 38.0263 21.5868 39.2189C21.8034 39.2616 22.0266 39.2217 22.2293 39.1342C22.8744 38.8557 23.6567 38.6926 24.5 38.6926C25.3433 38.6926 26.1256 38.8557 26.7707 39.1342C26.9734 39.2217 27.1963 39.2616 27.413 39.219C31.8578 38.3437 35.4814 35.4828 37.0947 31.4699C37.3063 30.9434 36.9799 30.3755 36.4638 30.1397C34.1341 29.0755 32.5 26.5896 32.5 23.6926C32.5 21.5582 33.3871 19.6469 34.7858 18.363C35.2177 17.9665 35.3394 17.2926 34.9191 16.8838C33.5793 15.5803 31.8671 14.8431 29.9132 14.441C29.6134 14.3793 29.3076 14.4747 29.0579 14.6517C28.1513 15.2944 26.8921 15.6926 25.5 15.6926C23.9855 15.6926 22.6282 15.2212 21.7113 14.4766Z" fill="black"/>
<path fill-rule="evenodd" clip-rule="evenodd" d="M28.9335 9.01155C29.4782 8.92056 29.938 9.38037 29.847 9.92511C29.4268 12.441 27.441 14.4268 24.9251 14.847C24.3804 14.938 23.9206 14.4782 24.0116 13.9335C24.4318 11.4176 26.4176 9.4318 28.9335 9.01155Z" fill="black"/>
</svg>
