<svg xmlns="http://www.w3.org/2000/svg" id="Layer_1" data-name="Layer 1" viewBox="0 0 64 64"><defs><style>.cls-1{fill:#f5dd90}.cls-5{fill:#a3cef1}.cls-6{fill:#dda15e}.cls-7{fill:#6096ba}.cls-8{fill:#274c77}</style></defs><path d="M34.14 46c-1.82-1.85-4.35-3-7.14-3h-3v-2.29l1.58-.67A4 4 0 0 0 28 36.36v-.76l2.2-.44c.46-.09.8-.5.8-.98v-1.45c.29.17.64.27 1 .27 1.1 0 2-.9 2-2s-.9-2-2-2c-.42 0-.81.13-1.14.36-.15-.96-.45-1.87-.86-2.71V2h27l5 4v46H51.29L53 46z" class="cls-5"/><path d="M45 14h2v6h-2zm4 8h4v2h-4zm-10 0h4v2h-4zm11.29 9.71L46 27.42l-4.29 4.29-1.41-1.41 5-5a.996.996 0 0 1 1.41 0l5 5-1.41 1.41Z" class="cls-8"/><path d="m25.58 40.04-3 1.29c-1.01.43-2.15.43-3.15 0l-3-1.29a4 4 0 0 1-2.42-3.68V31c0-3.31 2.69-6 6-6h2c3.31 0 6 2.69 6 6v5.36c0 1.6-.95 3.05-2.42 3.68Z" class="cls-6"/><path d="M34.14 46c-1.82-1.85-4.35-3-7.14-3h-3c0 1.66-1.34 3-3 3s-3-1.34-3-3h-3C9.48 43 5 47.48 5 53v7h22l4-14z" class="cls-8"/><path d="M16 56h2c1.1 0 2 .9 2 2v2h-4z" class="cls-6"/><path d="M11 32.73c-.29.17-.64.27-1 .27-1.1 0-2-.9-2-2s.9-2 2-2c.42 0 .81.13 1.14.36M31 32.73c.29.17.64.27 1 .27 1.1 0 2-.9 2-2s-.9-2-2-2c-.42 0-.81.13-1.14.36" class="cls-8"/><path fill="#bc6c25" d="m18 40.71 1.42.61c1.01.44 2.15.44 3.16 0l1.42-.61V43c0 1.66-1.34 3-3 3s-3-1.34-3-3z"/><path fill="#8b8c89" d="m27 60 4-14h22l-4 14"/><path d="M27.4 28.38h-.01c-.57-.23-1.23-.38-2.06-.38-4.33 0-4.33 4-8.67 4-1.13 0-1.97-.27-2.66-.67V31c0-3.31 2.69-6 6-6h2a5.99 5.99 0 0 1 5.39 3.38z" class="cls-8"/><path fill="#e7ecef" d="M28 35.6V31c0-3.31-2.69-6-6-6h-2c-3.31 0-6 2.69-6 6v4h-2c-.55 0-1-.45-1-1v-3c0-5.52 4.48-10 10-10 2.76 0 5.26 1.12 7.07 2.93S31 28.24 31 31v3.18c0 .48-.34.89-.8.98z"/><path d="M40 52c.55 0 1 .45 1 1s-.45 1-1 1z" class="cls-5"/><path d="M21 60h-2v-2c0-.55-.45-1-1-1h-7c-.55 0-1-.45-1-1v-4c0-.27.11-.52.29-.71L11.58 50a.996.996 0 1 1 1.41 1.41l-1 1V55h6c1.66 0 3 1.34 3 3v2Z" class="cls-7"/><path d="M2 60h50v2H2z" class="cls-5"/><path d="M21 37c-.11-.54.24-1.07.78-1.18L30 34.18v-2.86c0-4.79-3.61-8.98-8.38-9.3C16.38 21.67 12 25.83 12 31v3h2v2h-2c-1.1 0-2-.9-2-2v-2.68c0-5.72 4.24-10.74 9.94-11.27C26.48 19.43 32 24.58 32 31v3.18a2 2 0 0 1-1.61 1.96l-8.22 1.64c-.54.11-1.07-.24-1.18-.78Z" class="cls-7"/><path d="M42 6h8v8h-8z" class="cls-1"/><circle cx="36" cy="23" r="3" class="cls-8"/><circle cx="46" cy="23" r="3" class="cls-7"/><circle cx="56" cy="23" r="3" class="cls-8"/><circle cx="41" cy="34" r="3" class="cls-8"/><circle cx="51" cy="34" r="3" class="cls-8"/><path d="M36 27c-2.21 0-4-1.79-4-4s1.79-4 4-4 4 1.79 4 4-1.79 4-4 4m0-6c-1.1 0-2 .9-2 2s.9 2 2 2 2-.9 2-2-.9-2-2-2m10 6c-2.21 0-4-1.79-4-4s1.79-4 4-4 4 1.79 4 4-1.79 4-4 4m0-6c-1.1 0-2 .9-2 2s.9 2 2 2 2-.9 2-2-.9-2-2-2m10 6c-2.21 0-4-1.79-4-4s1.79-4 4-4 4 1.79 4 4-1.79 4-4 4m0-6c-1.1 0-2 .9-2 2s.9 2 2 2 2-.9 2-2-.9-2-2-2M41 38c-2.21 0-4-1.79-4-4s1.79-4 4-4 4 1.79 4 4-1.79 4-4 4m0-6c-1.1 0-2 .9-2 2s.9 2 2 2 2-.9 2-2-.9-2-2-2m10 6c-2.21 0-4-1.79-4-4s1.79-4 4-4 4 1.79 4 4-1.79 4-4 4m0-6c-1.1 0-2 .9-2 2s.9 2 2 2 2-.9 2-2-.9-2-2-2" class="cls-1"/></svg>