<svg width="48" height="48" viewBox="0 0 48 48" fill="none" xmlns="http://www.w3.org/2000/svg">
<path d="M22.42 18.94C22.9933 18.94 23.3733 19 23.56 19.12C23.7467 19.2267 23.84 19.4667 23.84 19.84C23.84 20.1333 23.7 20.3467 23.42 20.48C23.14 20.6133 22.8133 20.68 22.44 20.68L21.78 20.7C21.3267 20.7267 20.9933 20.74 20.78 20.74C20.5933 20.74 20.4733 20.7333 20.42 20.72C20.3933 20.8133 20.38 20.9667 20.38 21.18C20.3667 21.3667 20.3867 21.66 20.44 22.06C20.4533 22.14 20.4667 22.2533 20.48 22.4C20.4933 22.5467 20.5 22.68 20.5 22.8C20.5 23.1867 20.4267 23.48 20.28 23.68C20.1333 23.8667 19.8933 23.96 19.56 23.96C19.36 23.96 19.16 23.8867 18.96 23.74C18.7733 23.58 18.68 23.4067 18.68 23.22C18.68 22.1667 18.6533 21.3267 18.6 20.7C18.24 20.66 18.0133 20.64 17.92 20.64C17.6 20.64 17.2867 20.66 16.98 20.7C16.58 20.7267 16.2933 20.74 16.12 20.74C15.7733 20.7267 15.48 20.66 15.24 20.54C15.0133 20.4067 14.9 20.2067 14.9 19.94C14.9 19.6467 14.96 19.44 15.08 19.32C15.28 19.1067 15.6733 19 16.26 19C16.5667 19 16.9067 18.9867 17.28 18.96C17.6 18.9333 17.82 18.92 17.94 18.92C18.06 18.92 18.1733 18.9333 18.28 18.96C18.3867 18.9733 18.4867 18.98 18.58 18.98C18.6067 18.86 18.62 18.6667 18.62 18.4C18.62 18.1733 18.6067 17.8467 18.58 17.42C18.5533 17.02 18.54 16.7267 18.54 16.54C18.54 16.14 18.5933 15.8467 18.7 15.66C18.82 15.4733 19.0533 15.38 19.4 15.38C19.7067 15.38 19.94 15.4467 20.1 15.58C20.26 15.7 20.34 15.8733 20.34 16.1C20.3533 16.38 20.3467 16.7867 20.32 17.32L20.3 18.22C20.3 18.54 20.3067 18.78 20.32 18.94C20.64 18.9667 20.8733 18.98 21.02 18.98C21.3267 18.98 21.5533 18.9733 21.7 18.96L22.42 18.94Z" fill="#DD3131"/>
<path d="M39.2144 18.7C39.8277 18.7 40.1344 19.0467 40.1344 19.74C40.1344 20.1 40.0077 20.36 39.7544 20.52C39.5144 20.68 39.2144 20.76 38.8544 20.76C38.7477 20.76 38.6344 20.7533 38.5144 20.74C38.3944 20.7267 38.2677 20.7133 38.1344 20.7C37.7344 20.6333 37.3744 20.6 37.0544 20.6C36.8277 20.6 36.4877 20.6267 36.0344 20.68C35.5544 20.7333 35.1877 20.76 34.9344 20.76C34.5744 20.76 34.2544 20.6933 33.9744 20.56C33.6944 20.4133 33.5544 20.1733 33.5544 19.84C33.5544 19.3733 33.7277 19.0733 34.0744 18.94C34.421 18.7933 34.9077 18.72 35.5344 18.72L36.1944 18.74C36.5144 18.7667 36.761 18.78 36.9344 18.78L38.3944 18.74L39.2144 18.7Z" fill="#0000FF"/>
<path d="M21.82 29.18C22.0867 29.18 22.2933 29.2467 22.44 29.38C22.6 29.5 22.68 29.6533 22.68 29.84C22.68 29.9733 22.6533 30.1133 22.6 30.26C22.56 30.3933 22.5133 30.5333 22.46 30.68C22.1533 31.4 21.5067 32.4067 20.52 33.7C21.5333 35.0067 22.3533 35.8467 22.98 36.22C23.0333 36.2467 23.1333 36.2933 23.28 36.36C23.4267 36.4267 23.54 36.5067 23.62 36.6C23.7133 36.6933 23.76 36.8 23.76 36.92C23.76 37.2133 23.6467 37.4533 23.42 37.64C23.2067 37.8133 22.9467 37.9 22.64 37.9C22.12 37.9 21.5533 37.6133 20.94 37.04C20.3267 36.4533 19.8067 35.84 19.38 35.2C19.0733 35.6667 18.72 36.1333 18.32 36.6C17.9333 37.0533 17.5733 37.44 17.24 37.76C17.1067 37.9067 16.9467 38.02 16.76 38.1C16.5867 38.18 16.4133 38.22 16.24 38.22C16 38.22 15.7867 38.1667 15.6 38.06C15.4133 37.9533 15.32 37.7667 15.32 37.5C15.32 37.4333 15.3667 37.3267 15.46 37.18C15.5533 37.02 15.6067 36.9267 15.62 36.9C15.78 36.62 15.9933 36.3333 16.26 36.04C16.5267 35.7333 16.6933 35.54 16.76 35.46C16.92 35.26 17.0933 35.0667 17.28 34.88C17.3867 34.76 17.5467 34.5733 17.76 34.32C17.9733 34.0667 18.12 33.8667 18.2 33.72L17.5 32.76C17.1667 32.3733 16.88 32.0667 16.64 31.84C16.4 31.6 16.2067 31.48 16.06 31.48C15.8467 31.48 15.6467 31.54 15.46 31.66C15.3 31.7667 15.14 31.82 14.98 31.82C14.8067 31.82 14.6733 31.78 14.58 31.7C14.4867 31.6067 14.44 31.5067 14.44 31.4C14.44 30.9467 14.62 30.56 14.98 30.24C15.34 29.9067 15.7933 29.74 16.34 29.74C16.86 29.74 17.32 29.92 17.72 30.28C18.1333 30.6267 18.54 31.0933 18.94 31.68C18.9933 31.7333 19.0533 31.82 19.12 31.94C19.1867 32.06 19.2533 32.16 19.32 32.24C19.4667 32.0267 19.7333 31.6133 20.12 31C20.5333 30.2667 20.78 29.8467 20.86 29.74C21.14 29.3667 21.46 29.18 21.82 29.18Z" fill="#00AF1C"/>
<path d="M37.3345 31.94C37.0545 31.94 36.8145 31.84 36.6145 31.64C36.4145 31.44 36.3145 31.2 36.3145 30.92C36.3145 30.7467 36.3345 30.5733 36.3745 30.4C36.4279 30.2267 36.5012 30.0867 36.5945 29.98C36.7279 29.82 36.8679 29.7133 37.0145 29.66C37.1745 29.6067 37.3945 29.58 37.6745 29.58C37.9545 29.58 38.1679 29.68 38.3145 29.88C38.4745 30.08 38.5545 30.32 38.5545 30.6C38.5545 30.9333 38.4279 31.24 38.1745 31.52C37.9345 31.8 37.6545 31.94 37.3345 31.94ZM40.8145 32.8C41.2279 32.8 41.5412 32.8533 41.7545 32.96C41.9679 33.0533 42.0745 33.2533 42.0745 33.56C42.0745 33.9333 41.9079 34.2067 41.5745 34.38C41.2412 34.54 40.8812 34.62 40.4945 34.62C40.1612 34.62 39.8012 34.6 39.4145 34.56C39.2679 34.56 39.0479 34.5533 38.7545 34.54C38.4612 34.5133 38.1945 34.5 37.9545 34.5C37.5945 34.5 37.2679 34.5067 36.9745 34.52C36.6812 34.5333 36.4212 34.5467 36.1945 34.56C35.3679 34.6133 34.7545 34.64 34.3545 34.64C33.9145 34.64 33.5612 34.58 33.2945 34.46C33.0279 34.3267 32.8945 34.0467 32.8945 33.62C32.8945 33.2467 33.0879 32.98 33.4745 32.82C33.6079 32.7533 33.8012 32.72 34.0545 32.72C34.3079 32.72 34.7279 32.7467 35.3145 32.8C36.1012 32.88 36.7612 32.9067 37.2945 32.88C37.5212 32.88 38.0079 32.8667 38.7545 32.84C39.6612 32.8133 40.3479 32.8 40.8145 32.8ZM37.6345 35.58C37.9279 35.58 38.1745 35.6733 38.3745 35.86C38.5879 36.0333 38.6945 36.3 38.6945 36.66C38.6945 36.9267 38.6079 37.1667 38.4345 37.38C38.3279 37.54 38.1879 37.6667 38.0145 37.76C37.8412 37.8533 37.6612 37.9 37.4745 37.9C37.3545 37.9 37.2145 37.8667 37.0545 37.8C36.6412 37.64 36.4345 37.28 36.4345 36.72C36.4345 36.4267 36.5412 36.1667 36.7545 35.94C36.9812 35.7 37.2745 35.58 37.6345 35.58Z" fill="#F58613"/>
<path d="M8.33097 37.3395C8.33097 39.0355 7.86648 40.3438 6.9375 41.2642C6.01705 42.1932 4.75994 42.6577 3.16619 42.6577C2.82528 42.6577 2.50142 42.6321 2.1946 42.581C1.88778 42.5298 1.58097 42.4574 1.27415 42.3636L1.56818 40.3054C1.7642 40.3651 2.03267 40.4119 2.37358 40.446C2.71449 40.4886 2.97869 40.5099 3.16619 40.5099C4.06108 40.5099 4.7642 40.2415 5.27557 39.7045C5.79545 39.1761 6.0554 38.3878 6.0554 37.3395V13.3565C6.0554 11.5327 6.53693 10.1222 7.5 9.125C8.46307 8.12784 9.77131 7.62926 11.4247 7.62926C11.8168 7.62926 12.1918 7.65909 12.5497 7.71875C12.9077 7.77841 13.2741 7.85937 13.6491 7.96165L13.2912 9.95597C13.0866 9.89631 12.8011 9.85369 12.4347 9.82812C12.0682 9.79403 11.7315 9.77699 11.4247 9.77699C10.4616 9.77699 9.70313 10.0753 9.14915 10.6719C8.60369 11.2685 8.33097 12.1634 8.33097 13.3565V37.3395Z" fill="#5F5F5F"/>
</svg>
