<svg viewBox="0.00000 0.00000 300.00000 300.00000" xmlns="http://www.w3.org/2000/svg"><path d="M 0.00000 0.00000 h 84.00000 v 12.00000 h -84.00000 z M 96.00000 0.00000 h 12.00000 v 12.00000 h -12.00000 z M 120.00000 0.00000 h 60.00000 v 12.00000 h -60.00000 z M 216.00000 0.00000 h 84.00000 v 12.00000 h -84.00000 z M 0.00000 12.00000 h 12.00000 v 12.00000 h -12.00000 z M 72.00000 12.00000 h 12.00000 v 12.00000 h -12.00000 z M 108.00000 12.00000 h 24.00000 v 12.00000 h -24.00000 z M 156.00000 12.00000 h 12.00000 v 12.00000 h -12.00000 z M 216.00000 12.00000 h 12.00000 v 12.00000 h -12.00000 z M 288.00000 12.00000 h 12.00000 v 12.00000 h -12.00000 z M 0.00000 24.00000 h 12.00000 v 12.00000 h -12.00000 z M 24.00000 24.00000 h 36.00000 v 12.00000 h -36.00000 z M 72.00000 24.00000 h 12.00000 v 12.00000 h -12.00000 z M 120.00000 24.00000 h 24.00000 v 12.00000 h -24.00000 z M 156.00000 24.00000 h 36.00000 v 12.00000 h -36.00000 z M 216.00000 24.00000 h 12.00000 v 12.00000 h -12.00000 z M 240.00000 24.00000 h 36.00000 v 12.00000 h -36.00000 z M 288.00000 24.00000 h 12.00000 v 12.00000 h -12.00000 z M 0.00000 36.00000 h 12.00000 v 12.00000 h -12.00000 z M 24.00000 36.00000 h 36.00000 v 12.00000 h -36.00000 z M 72.00000 36.00000 h 12.00000 v 12.00000 h -12.00000 z M 132.00000 36.00000 h 48.00000 v 12.00000 h -48.00000 z M 216.00000 36.00000 h 12.00000 v 12.00000 h -12.00000 z M 240.00000 36.00000 h 36.00000 v 12.00000 h -36.00000 z M 288.00000 36.00000 h 12.00000 v 12.00000 h -12.00000 z M 0.00000 48.00000 h 12.00000 v 12.00000 h -12.00000 z M 24.00000 48.00000 h 36.00000 v 12.00000 h -36.00000 z M 72.00000 48.00000 h 12.00000 v 12.00000 h -12.00000 z M 108.00000 48.00000 h 12.00000 v 12.00000 h -12.00000 z M 144.00000 48.00000 h 36.00000 v 12.00000 h -36.00000 z M 192.00000 48.00000 h 12.00000 v 12.00000 h -12.00000 z M 216.00000 48.00000 h 12.00000 v 12.00000 h -12.00000 z M 240.00000 48.00000 h 36.00000 v 12.00000 h -36.00000 z M 288.00000 48.00000 h 12.00000 v 12.00000 h -12.00000 z M 0.00000 60.00000 h 12.00000 v 12.00000 h -12.00000 z M 72.00000 60.00000 h 12.00000 v 12.00000 h -12.00000 z M 120.00000 60.00000 h 24.00000 v 12.00000 h -24.00000 z M 156.00000 60.00000 h 24.00000 v 12.00000 h -24.00000 z M 216.00000 60.00000 h 12.00000 v 12.00000 h -12.00000 z M 288.00000 60.00000 h 12.00000 v 12.00000 h -12.00000 z M 0.00000 72.00000 h 84.00000 v 12.00000 h -84.00000 z M 96.00000 72.00000 h 12.00000 v 12.00000 h -12.00000 z M 120.00000 72.00000 h 12.00000 v 12.00000 h -12.00000 z M 144.00000 72.00000 h 12.00000 v 12.00000 h -12.00000 z M 168.00000 72.00000 h 12.00000 v 12.00000 h -12.00000 z M 192.00000 72.00000 h 12.00000 v 12.00000 h -12.00000 z M 216.00000 72.00000 h 84.00000 v 12.00000 h -84.00000 z M 96.00000 84.00000 h 12.00000 v 12.00000 h -12.00000 z M 120.00000 84.00000 h 24.00000 v 12.00000 h -24.00000 z M 156.00000 84.00000 h 24.00000 v 12.00000 h -24.00000 z M 0.00000 96.00000 h 24.00000 v 12.00000 h -24.00000 z M 36.00000 96.00000 h 24.00000 v 12.00000 h -24.00000 z M 72.00000 96.00000 h 12.00000 v 12.00000 h -12.00000 z M 108.00000 96.00000 h 48.00000 v 12.00000 h -48.00000 z M 168.00000 96.00000 h 12.00000 v 12.00000 h -12.00000 z M 192.00000 96.00000 h 12.00000 v 12.00000 h -12.00000 z M 216.00000 96.00000 h 12.00000 v 12.00000 h -12.00000 z M 288.00000 96.00000 h 12.00000 v 12.00000 h -12.00000 z M 12.00000 108.00000 h 36.00000 v 12.00000 h -36.00000 z M 96.00000 108.00000 h 24.00000 v 12.00000 h -24.00000 z M 132.00000 108.00000 h 12.00000 v 12.00000 h -12.00000 z M 168.00000 108.00000 h 24.00000 v 12.00000 h -24.00000 z M 228.00000 108.00000 h 60.00000 v 12.00000 h -60.00000 z M 0.00000 120.00000 h 24.00000 v 12.00000 h -24.00000 z M 36.00000 120.00000 h 12.00000 v 12.00000 h -12.00000 z M 60.00000 120.00000 h 24.00000 v 12.00000 h -24.00000 z M 120.00000 120.00000 h 24.00000 v 12.00000 h -24.00000 z M 156.00000 120.00000 h 12.00000 v 12.00000 h -12.00000 z M 180.00000 120.00000 h 24.00000 v 12.00000 h -24.00000 z M 216.00000 120.00000 h 24.00000 v 12.00000 h -24.00000 z M 252.00000 120.00000 h 12.00000 v 12.00000 h -12.00000 z M 288.00000 120.00000 h 12.00000 v 12.00000 h -12.00000 z M 0.00000 132.00000 h 48.00000 v 12.00000 h -48.00000 z M 96.00000 132.00000 h 60.00000 v 12.00000 h -60.00000 z M 168.00000 132.00000 h 12.00000 v 12.00000 h -12.00000 z M 192.00000 132.00000 h 12.00000 v 12.00000 h -12.00000 z M 216.00000 132.00000 h 12.00000 v 12.00000 h -12.00000 z M 252.00000 132.00000 h 48.00000 v 12.00000 h -48.00000 z M 0.00000 144.00000 h 24.00000 v 12.00000 h -24.00000 z M 36.00000 144.00000 h 84.00000 v 12.00000 h -84.00000 z M 144.00000 144.00000 h 12.00000 v 12.00000 h -12.00000 z M 180.00000 144.00000 h 24.00000 v 12.00000 h -24.00000 z M 216.00000 144.00000 h 12.00000 v 12.00000 h -12.00000 z M 288.00000 144.00000 h 12.00000 v 12.00000 h -12.00000 z M 0.00000 156.00000 h 24.00000 v 12.00000 h -24.00000 z M 48.00000 156.00000 h 24.00000 v 12.00000 h -24.00000 z M 132.00000 156.00000 h 12.00000 v 12.00000 h -12.00000 z M 168.00000 156.00000 h 36.00000 v 12.00000 h -36.00000 z M 240.00000 156.00000 h 12.00000 v 12.00000 h -12.00000 z M 276.00000 156.00000 h 12.00000 v 12.00000 h -12.00000 z M 0.00000 168.00000 h 60.00000 v 12.00000 h -60.00000 z M 72.00000 168.00000 h 12.00000 v 12.00000 h -12.00000 z M 96.00000 168.00000 h 12.00000 v 12.00000 h -12.00000 z M 144.00000 168.00000 h 24.00000 v 12.00000 h -24.00000 z M 180.00000 168.00000 h 36.00000 v 12.00000 h -36.00000 z M 240.00000 168.00000 h 60.00000 v 12.00000 h -60.00000 z M 0.00000 180.00000 h 12.00000 v 12.00000 h -12.00000 z M 24.00000 180.00000 h 24.00000 v 12.00000 h -24.00000 z M 60.00000 180.00000 h 12.00000 v 12.00000 h -12.00000 z M 120.00000 180.00000 h 24.00000 v 12.00000 h -24.00000 z M 192.00000 180.00000 h 12.00000 v 12.00000 h -12.00000 z M 228.00000 180.00000 h 12.00000 v 12.00000 h -12.00000 z M 252.00000 180.00000 h 24.00000 v 12.00000 h -24.00000 z M 288.00000 180.00000 h 12.00000 v 12.00000 h -12.00000 z M 0.00000 192.00000 h 12.00000 v 12.00000 h -12.00000 z M 24.00000 192.00000 h 12.00000 v 12.00000 h -12.00000 z M 48.00000 192.00000 h 12.00000 v 12.00000 h -12.00000 z M 72.00000 192.00000 h 12.00000 v 12.00000 h -12.00000 z M 108.00000 192.00000 h 12.00000 v 12.00000 h -12.00000 z M 144.00000 192.00000 h 24.00000 v 12.00000 h -24.00000 z M 192.00000 192.00000 h 60.00000 v 12.00000 h -60.00000 z M 264.00000 192.00000 h 24.00000 v 12.00000 h -24.00000 z M 96.00000 204.00000 h 12.00000 v 12.00000 h -12.00000 z M 144.00000 204.00000 h 12.00000 v 12.00000 h -12.00000 z M 168.00000 204.00000 h 12.00000 v 12.00000 h -12.00000 z M 192.00000 204.00000 h 12.00000 v 12.00000 h -12.00000 z M 240.00000 204.00000 h 12.00000 v 12.00000 h -12.00000 z M 264.00000 204.00000 h 24.00000 v 12.00000 h -24.00000 z M 0.00000 216.00000 h 84.00000 v 12.00000 h -84.00000 z M 108.00000 216.00000 h 60.00000 v 12.00000 h -60.00000 z M 192.00000 216.00000 h 12.00000 v 12.00000 h -12.00000 z M 216.00000 216.00000 h 12.00000 v 12.00000 h -12.00000 z M 240.00000 216.00000 h 12.00000 v 12.00000 h -12.00000 z M 288.00000 216.00000 h 12.00000 v 12.00000 h -12.00000 z M 0.00000 228.00000 h 12.00000 v 12.00000 h -12.00000 z M 72.00000 228.00000 h 12.00000 v 12.00000 h -12.00000 z M 108.00000 228.00000 h 96.00000 v 12.00000 h -96.00000 z M 240.00000 228.00000 h 12.00000 v 12.00000 h -12.00000 z M 276.00000 228.00000 h 24.00000 v 12.00000 h -24.00000 z M 0.00000 240.00000 h 12.00000 v 12.00000 h -12.00000 z M 24.00000 240.00000 h 36.00000 v 12.00000 h -36.00000 z M 72.00000 240.00000 h 12.00000 v 12.00000 h -12.00000 z M 96.00000 240.00000 h 36.00000 v 12.00000 h -36.00000 z M 144.00000 240.00000 h 12.00000 v 12.00000 h -12.00000 z M 168.00000 240.00000 h 84.00000 v 12.00000 h -84.00000 z M 276.00000 240.00000 h 12.00000 v 12.00000 h -12.00000 z M 0.00000 252.00000 h 12.00000 v 12.00000 h -12.00000 z M 24.00000 252.00000 h 36.00000 v 12.00000 h -36.00000 z M 72.00000 252.00000 h 12.00000 v 12.00000 h -12.00000 z M 96.00000 252.00000 h 24.00000 v 12.00000 h -24.00000 z M 132.00000 252.00000 h 12.00000 v 12.00000 h -12.00000 z M 156.00000 252.00000 h 24.00000 v 12.00000 h -24.00000 z M 192.00000 252.00000 h 36.00000 v 12.00000 h -36.00000 z M 276.00000 252.00000 h 24.00000 v 12.00000 h -24.00000 z M 0.00000 264.00000 h 12.00000 v 12.00000 h -12.00000 z M 24.00000 264.00000 h 36.00000 v 12.00000 h -36.00000 z M 72.00000 264.00000 h 12.00000 v 12.00000 h -12.00000 z M 120.00000 264.00000 h 24.00000 v 12.00000 h -24.00000 z M 168.00000 264.00000 h 12.00000 v 12.00000 h -12.00000 z M 204.00000 264.00000 h 12.00000 v 12.00000 h -12.00000 z M 240.00000 264.00000 h 60.00000 v 12.00000 h -60.00000 z M 0.00000 276.00000 h 12.00000 v 12.00000 h -12.00000 z M 72.00000 276.00000 h 12.00000 v 12.00000 h -12.00000 z M 96.00000 276.00000 h 12.00000 v 12.00000 h -12.00000 z M 132.00000 276.00000 h 12.00000 v 12.00000 h -12.00000 z M 180.00000 276.00000 h 12.00000 v 12.00000 h -12.00000 z M 216.00000 276.00000 h 36.00000 v 12.00000 h -36.00000 z M 264.00000 276.00000 h 36.00000 v 12.00000 h -36.00000 z M 0.00000 288.00000 h 84.00000 v 12.00000 h -84.00000 z M 96.00000 288.00000 h 48.00000 v 12.00000 h -48.00000 z M 192.00000 288.00000 h 12.00000 v 12.00000 h -12.00000 z M 252.00000 288.00000 h 12.00000 v 12.00000 h -12.00000 z M 288.00000 288.00000 h 12.00000 v 12.00000 h -12.00000 z " style="fill: #000000"/><text style="fill: #000000; font-family: &quot;monospace&quot;; font-size: 30.00000px" x="0.00000" y="0.00000"></text></svg>