<svg width="48" height="48" viewBox="0 0 48 48" fill="none" xmlns="http://www.w3.org/2000/svg">
<line x1="17" y1="36.5" x2="36" y2="36.5" stroke="#00AF1C"/>
<path d="M27.9285 11.3714C28.1336 10.8586 27.8842 10.2766 27.3714 10.0715C26.8586 9.86641 26.2766 10.1158 26.0715 10.6286L27.9285 11.3714ZM16.0809 36.3939C16.2984 36.9015 16.8863 37.1367 17.3939 36.9191L25.6662 33.3739C26.1739 33.1563 26.409 32.5684 26.1915 32.0608C25.9739 31.5532 25.386 31.318 24.8784 31.5356L17.5252 34.6869L14.3739 27.3338C14.1563 26.8261 13.5684 26.591 13.0608 26.8085C12.5532 27.0261 12.318 27.614 12.5356 28.1216L16.0809 36.3939ZM12.5763 27.117C12.3647 27.6272 12.6068 28.2122 13.117 28.4237C13.6272 28.6353 14.2122 28.3932 14.4237 27.883L12.5763 27.117ZM22.9237 7.38302C23.1353 6.87285 22.8932 6.28779 22.383 6.07626C21.8728 5.86472 21.2878 6.10682 21.0763 6.61698L22.9237 7.38302ZM24.5797 31.6089C24.3636 32.1171 24.6006 32.7043 25.1089 32.9203C25.6171 33.1364 26.2043 32.8994 26.4203 32.3911L24.5797 31.6089ZM34.9203 12.3911C35.1364 11.8829 34.8994 11.2957 34.3911 11.0797C33.8829 10.8636 33.2957 11.1006 33.0797 11.6089L34.9203 12.3911ZM26.0715 10.6286L16.0715 35.6286L17.9285 36.3714L27.9285 11.3714L26.0715 10.6286ZM14.4237 27.883L22.9237 7.38302L21.0763 6.61698L12.5763 27.117L14.4237 27.883ZM26.4203 32.3911L34.9203 12.3911L33.0797 11.6089L24.5797 31.6089L26.4203 32.3911Z" fill="#626262"/>
</svg>
