<svg width="128" height="128" viewBox="0 0 128 128" fill="none" xmlns="http://www.w3.org/2000/svg">
<rect width="128" height="128" fill="#DDDDDD"/>
<path d="M16.2869 83V45.1818H31.2074C34.0758 45.1818 36.5194 45.7296 38.5384 46.8253C40.5573 47.9086 42.0961 49.4167 43.1548 51.3494C44.2259 53.2699 44.7614 55.4858 44.7614 57.9972C44.7614 60.5085 44.2197 62.7244 43.1364 64.6449C42.053 66.5653 40.4834 68.0611 38.4276 69.1321C36.384 70.2031 33.9096 70.7386 31.0043 70.7386H21.4943V64.331H29.7116C31.2505 64.331 32.5185 64.0663 33.5156 63.5369C34.5251 62.9953 35.276 62.2505 35.7685 61.3026C36.2732 60.3423 36.5256 59.2405 36.5256 57.9972C36.5256 56.7415 36.2732 55.6458 35.7685 54.7102C35.276 53.7623 34.5251 53.0298 33.5156 52.5128C32.5062 51.9834 31.2259 51.7188 29.6747 51.7188H24.2827V83H16.2869Z" fill="#DE0000"/>
<path d="M63.3612 83H49.9549V45.1818H63.4719C67.2759 45.1818 70.5505 45.9389 73.2958 47.4531C76.0411 48.955 78.1523 51.1155 79.6296 53.9347C81.1192 56.7538 81.864 60.1269 81.864 64.054C81.864 67.9934 81.1192 71.3788 79.6296 74.2102C78.1523 77.0417 76.0288 79.2145 73.2589 80.7287C70.5013 82.2429 67.2021 83 63.3612 83ZM57.9506 76.1491H63.0288C65.3924 76.1491 67.3806 75.7306 68.9933 74.8935C70.6183 74.044 71.837 72.733 72.6495 70.9602C73.4743 69.1752 73.8867 66.8731 73.8867 64.054C73.8867 61.2595 73.4743 58.9759 72.6495 57.2031C71.837 55.4304 70.6244 54.1255 69.0117 53.2884C67.399 52.4512 65.4109 52.0327 63.0472 52.0327H57.9506V76.1491Z" fill="#00A939"/>
<path d="M87.7869 83V45.1818H112.827V51.7741H95.7827V60.7855H111.165V67.3778H95.7827V83H87.7869Z" fill="#1A0AD7"/>
</svg>
