<svg width="128" height="128" viewBox="0 0 128 128" fill="none" xmlns="http://www.w3.org/2000/svg">
<rect width="128" height="128" fill="#DDDDDD"/>
<path d="M22.2102 68.8636H28.483L31.6364 72.9205L34.7386 76.5341L40.5852 83.8636H33.6989L29.6761 78.9205L27.6136 75.9886L22.2102 68.8636ZM41.1136 63.5455C41.1136 67.3523 40.392 70.5909 38.9489 73.2614C37.517 75.9318 35.5625 77.9716 33.0852 79.3807C30.6193 80.7784 27.8466 81.4773 24.767 81.4773C21.6648 81.4773 18.8807 80.7727 16.4148 79.3636C13.9489 77.9545 12 75.9148 10.5682 73.2443C9.13636 70.5739 8.42045 67.3409 8.42045 63.5455C8.42045 59.7386 9.13636 56.5 10.5682 53.8295C12 51.1591 13.9489 49.125 16.4148 47.7273C18.8807 46.3182 21.6648 45.6136 24.767 45.6136C27.8466 45.6136 30.6193 46.3182 33.0852 47.7273C35.5625 49.125 37.517 51.1591 38.9489 53.8295C40.392 56.5 41.1136 59.7386 41.1136 63.5455ZM33.6307 63.5455C33.6307 61.0795 33.2614 59 32.5227 57.3068C31.7955 55.6136 30.767 54.3295 29.4375 53.4545C28.108 52.5795 26.5511 52.142 24.767 52.142C22.983 52.142 21.4261 52.5795 20.0966 53.4545C18.767 54.3295 17.733 55.6136 16.9943 57.3068C16.267 59 15.9034 61.0795 15.9034 63.5455C15.9034 66.0114 16.267 68.0909 16.9943 69.7841C17.733 71.4773 18.767 72.7614 20.0966 73.6364C21.4261 74.5114 22.983 74.9489 24.767 74.9489C26.5511 74.9489 28.108 74.5114 29.4375 73.6364C30.767 72.7614 31.7955 71.4773 32.5227 69.7841C33.2614 68.0909 33.6307 66.0114 33.6307 63.5455ZM46.581 81V46.0909H60.3537C62.9901 46.0909 65.2401 46.5625 67.1037 47.5057C68.9787 48.4375 70.4048 49.7614 71.3821 51.4773C72.3707 53.1818 72.8651 55.1875 72.8651 57.4943C72.8651 59.8125 72.3651 61.8068 71.3651 63.4773C70.3651 65.1364 68.9162 66.4091 67.0185 67.2955C65.1321 68.1818 62.848 68.625 60.1662 68.625H50.9446V62.6932H58.973C60.3821 62.6932 61.5526 62.5 62.4844 62.1136C63.4162 61.7273 64.1094 61.1477 64.5639 60.375C65.0298 59.6023 65.2628 58.642 65.2628 57.4943C65.2628 56.3352 65.0298 55.358 64.5639 54.5625C64.1094 53.767 63.4105 53.1648 62.4673 52.7557C61.5355 52.3352 60.3594 52.125 58.9389 52.125H53.9616V81H46.581ZM65.4332 65.1136L74.1094 81H65.9616L57.473 65.1136H65.4332ZM76.0128 81V72.2727H78.4332V81H76.0128ZM77.2287 71.1477C76.8688 71.1477 76.5601 71.0284 76.3026 70.7898C76.0488 70.5473 75.9219 70.2576 75.9219 69.9205C75.9219 69.5871 76.0488 69.3011 76.3026 69.0625C76.5601 68.8201 76.8688 68.6989 77.2287 68.6989C77.5885 68.6989 77.8954 68.8201 78.1491 69.0625C78.4067 69.3011 78.5355 69.5871 78.5355 69.9205C78.5355 70.2576 78.4067 70.5473 78.1491 70.7898C77.8954 71.0284 77.5885 71.1477 77.2287 71.1477ZM80.3722 81V72.2727H82.679V73.8125H82.7812C82.9631 73.3011 83.2661 72.8977 83.6903 72.6023C84.1146 72.3068 84.6222 72.1591 85.2131 72.1591C85.8116 72.1591 86.321 72.3087 86.7415 72.608C87.1619 72.9034 87.4422 73.3049 87.5824 73.8125H87.6733C87.8513 73.3125 88.1733 72.9129 88.6392 72.6136C89.1089 72.3106 89.6638 72.1591 90.304 72.1591C91.1184 72.1591 91.7794 72.4186 92.2869 72.9375C92.7983 73.4527 93.054 74.1837 93.054 75.1307V81H90.6392V75.608C90.6392 75.1231 90.5104 74.7595 90.2528 74.517C89.9953 74.2746 89.6733 74.1534 89.2869 74.1534C88.8475 74.1534 88.5047 74.2936 88.2585 74.5739C88.0123 74.8504 87.8892 75.2159 87.8892 75.6705V81H85.5426V75.5568C85.5426 75.1288 85.4195 74.7879 85.1733 74.5341C84.9309 74.2803 84.6108 74.1534 84.2131 74.1534C83.9441 74.1534 83.7017 74.2216 83.4858 74.358C83.2737 74.4905 83.1051 74.678 82.9801 74.9205C82.8551 75.1591 82.7926 75.4394 82.7926 75.7614V81H80.3722ZM97.4545 81.1648C96.8977 81.1648 96.4015 81.0682 95.9659 80.875C95.5303 80.678 95.1856 80.3883 94.9318 80.0057C94.6818 79.6193 94.5568 79.1383 94.5568 78.5625C94.5568 78.0777 94.6458 77.6705 94.8239 77.3409C95.0019 77.0114 95.2443 76.7462 95.5511 76.5455C95.858 76.3447 96.2064 76.1932 96.5966 76.0909C96.9905 75.9886 97.4034 75.9167 97.8352 75.875C98.3428 75.822 98.7519 75.7727 99.0625 75.7273C99.3731 75.678 99.5985 75.6061 99.7386 75.5114C99.8788 75.4167 99.9489 75.2765 99.9489 75.0909V75.0568C99.9489 74.697 99.8352 74.4186 99.608 74.2216C99.3845 74.0246 99.0663 73.9261 98.6534 73.9261C98.2178 73.9261 97.8712 74.0227 97.6136 74.2159C97.3561 74.4053 97.1856 74.6439 97.1023 74.9318L94.8636 74.75C94.9773 74.2197 95.2008 73.7614 95.5341 73.375C95.8674 72.9848 96.2973 72.6856 96.8239 72.4773C97.3542 72.2652 97.9678 72.1591 98.6648 72.1591C99.1496 72.1591 99.6136 72.2159 100.057 72.3295C100.504 72.4432 100.9 72.6193 101.244 72.858C101.593 73.0966 101.867 73.4034 102.068 73.7784C102.269 74.1496 102.369 74.5947 102.369 75.1136V81H100.074V79.7898H100.006C99.8655 80.0625 99.678 80.303 99.4432 80.5114C99.2083 80.7159 98.9261 80.8769 98.5966 80.9943C98.267 81.108 97.8864 81.1648 97.4545 81.1648ZM98.1477 79.4943C98.5038 79.4943 98.8182 79.4242 99.0909 79.2841C99.3636 79.1402 99.5777 78.947 99.733 78.7045C99.8883 78.4621 99.9659 78.1875 99.9659 77.8807V76.9545C99.8902 77.0038 99.786 77.0492 99.6534 77.0909C99.5246 77.1288 99.3788 77.1648 99.2159 77.1989C99.053 77.2292 98.8902 77.2576 98.7273 77.2841C98.5644 77.3068 98.4167 77.3277 98.2841 77.3466C98 77.3883 97.7519 77.4545 97.5398 77.5455C97.3277 77.6364 97.1629 77.7595 97.0455 77.9148C96.928 78.0663 96.8693 78.2557 96.8693 78.483C96.8693 78.8125 96.9886 79.0644 97.2273 79.2386C97.4697 79.4091 97.7765 79.4943 98.1477 79.4943ZM108.179 84.4545C107.395 84.4545 106.723 84.3466 106.162 84.1307C105.605 83.9186 105.162 83.6288 104.832 83.2614C104.503 82.8939 104.289 82.4811 104.19 82.0227L106.429 81.7216C106.497 81.8958 106.605 82.0587 106.753 82.2102C106.901 82.3617 107.096 82.483 107.338 82.5739C107.584 82.6686 107.884 82.7159 108.236 82.7159C108.762 82.7159 109.196 82.5871 109.537 82.3295C109.882 82.0758 110.054 81.6496 110.054 81.0511V79.4545H109.952C109.846 79.697 109.687 79.9261 109.474 80.142C109.262 80.358 108.99 80.5341 108.656 80.6705C108.323 80.8068 107.925 80.875 107.463 80.875C106.808 80.875 106.211 80.7235 105.673 80.4205C105.139 80.1136 104.713 79.6458 104.395 79.017C104.08 78.3845 103.923 77.5852 103.923 76.6193C103.923 75.6307 104.084 74.8049 104.406 74.142C104.728 73.4792 105.156 72.983 105.69 72.6534C106.228 72.3239 106.817 72.1591 107.457 72.1591C107.946 72.1591 108.355 72.2424 108.685 72.4091C109.014 72.572 109.279 72.7765 109.48 73.0227C109.685 73.2652 109.842 73.5038 109.952 73.7386H110.043V72.2727H112.446V81.0852C112.446 81.8277 112.264 82.4489 111.901 82.9489C111.537 83.4489 111.033 83.8239 110.389 84.0739C109.749 84.3277 109.012 84.4545 108.179 84.4545ZM108.23 79.0568C108.62 79.0568 108.95 78.9602 109.219 78.767C109.491 78.5701 109.7 78.2898 109.844 77.9261C109.991 77.5587 110.065 77.1193 110.065 76.608C110.065 76.0966 109.993 75.6534 109.849 75.2784C109.705 74.8996 109.497 74.6061 109.224 74.3977C108.952 74.1894 108.62 74.0852 108.23 74.0852C107.832 74.0852 107.497 74.1932 107.224 74.4091C106.952 74.6212 106.745 74.9167 106.605 75.2955C106.465 75.6742 106.395 76.1117 106.395 76.608C106.395 77.1117 106.465 77.5473 106.605 77.9148C106.749 78.2784 106.955 78.5606 107.224 78.7614C107.497 78.9583 107.832 79.0568 108.23 79.0568ZM118.349 81.1705C117.452 81.1705 116.679 80.9886 116.031 80.625C115.387 80.2576 114.891 79.7386 114.543 79.0682C114.194 78.3939 114.02 77.5966 114.02 76.6761C114.02 75.7784 114.194 74.9905 114.543 74.3125C114.891 73.6345 115.382 73.1061 116.014 72.7273C116.651 72.3485 117.397 72.1591 118.253 72.1591C118.829 72.1591 119.365 72.2519 119.861 72.4375C120.361 72.6193 120.796 72.8939 121.168 73.2614C121.543 73.6288 121.834 74.0909 122.043 74.6477C122.251 75.2008 122.355 75.8485 122.355 76.5909V77.2557H114.986V75.7557H120.077C120.077 75.4072 120.001 75.0985 119.849 74.8295C119.698 74.5606 119.488 74.3504 119.219 74.1989C118.954 74.0436 118.645 73.9659 118.293 73.9659C117.925 73.9659 117.599 74.0511 117.315 74.2216C117.035 74.3883 116.815 74.6136 116.656 74.8977C116.497 75.178 116.416 75.4905 116.412 75.8352V77.2614C116.412 77.6932 116.491 78.0663 116.651 78.3807C116.813 78.6951 117.043 78.9375 117.338 79.108C117.634 79.2784 117.984 79.3636 118.389 79.3636C118.658 79.3636 118.904 79.3258 119.128 79.25C119.351 79.1742 119.543 79.0606 119.702 78.9091C119.861 78.7576 119.982 78.572 120.065 78.3523L122.304 78.5C122.19 79.0379 121.957 79.5076 121.605 79.9091C121.257 80.3068 120.806 80.6174 120.253 80.8409C119.704 81.0606 119.069 81.1705 118.349 81.1705Z" fill="#D90000"/>
</svg>
