<svg width="128" height="128" viewBox="0 0 128 128" fill="none" xmlns="http://www.w3.org/2000/svg">
<rect width="128" height="128" fill="white"/>
<path fill-rule="evenodd" clip-rule="evenodd" d="M16.3081 80.1351C14.4224 80.1351 13.254 82.302 14.2166 84.0135L26.9254 106.608C27.3636 107.387 28.1584 107.865 29.0168 107.865H37.5997L30 80.1351H16.3081ZM45.5 80.1351L45 107.865H60.2998L61 80.1351H45.5ZM68.5 80.1351L68 107.865H82L83 80.1351H68.5ZM97 80.1351L90.5 107.865H99.6568C100.567 107.865 101.401 107.328 101.819 106.474L112.855 83.8794C113.69 82.1705 112.515 80.1351 110.693 80.1351H97ZM10.0338 86.6352C7.14576 81.5007 10.6512 75 16.3081 75H110.693C116.157 75 119.683 81.1062 117.179 86.2328L106.142 108.827C104.891 111.39 102.388 113 99.6568 113H29.0168C26.4417 113 24.0572 111.567 22.7425 109.23L10.0338 86.6352Z" fill="#FF5656" stroke="#5B5B5B" stroke-width="2"/>
<path d="M13.8466 33.7741V27.1818H44.9062V33.7741H33.3281V65H25.4247V33.7741H13.8466ZM48.581 33.7741V27.1818H79.6406V33.7741H68.0625V65H60.1591V33.7741H48.581ZM105.271 38.0582C105.124 36.5687 104.49 35.4115 103.369 34.5866C102.249 33.7618 100.729 33.3494 98.8082 33.3494C97.5033 33.3494 96.4015 33.5341 95.5028 33.9034C94.6042 34.2604 93.9148 34.759 93.4347 35.3991C92.9669 36.0393 92.733 36.7656 92.733 37.5781C92.7083 38.2552 92.8499 38.8461 93.1577 39.3509C93.4777 39.8556 93.9148 40.2926 94.4688 40.6619C95.0227 41.0189 95.6629 41.3329 96.3892 41.6037C97.1155 41.8622 97.8911 42.0838 98.7159 42.2685L102.114 43.081C103.763 43.4503 105.277 43.9427 106.656 44.5582C108.035 45.1738 109.229 45.9309 110.239 46.8295C111.248 47.7282 112.03 48.7869 112.584 50.0057C113.15 51.2244 113.439 52.6217 113.452 54.1974C113.439 56.5118 112.848 58.5185 111.679 60.2173C110.522 61.9039 108.848 63.215 106.656 64.1506C104.477 65.0739 101.849 65.5355 98.7713 65.5355C95.7183 65.5355 93.0592 65.0677 90.794 64.1321C88.5412 63.1965 86.7808 61.8116 85.5128 59.9773C84.2571 58.1307 83.5985 55.8471 83.5369 53.1264H91.2741C91.3603 54.3944 91.7235 55.4531 92.3636 56.3026C93.0161 57.1397 93.884 57.7737 94.9673 58.2045C96.063 58.6231 97.3002 58.8324 98.679 58.8324C100.033 58.8324 101.209 58.6354 102.206 58.2415C103.215 57.8475 103.997 57.2997 104.551 56.598C105.105 55.8963 105.382 55.09 105.382 54.179C105.382 53.3295 105.13 52.6155 104.625 52.0369C104.133 51.4583 103.406 50.9659 102.446 50.5597C101.498 50.1534 100.335 49.7841 98.956 49.4517L94.8381 48.4176C91.6496 47.642 89.1321 46.4295 87.2855 44.7798C85.4389 43.1302 84.5218 40.9081 84.5341 38.1136C84.5218 35.8239 85.1312 33.8234 86.3622 32.1122C87.6056 30.401 89.3106 29.0653 91.4773 28.1051C93.6439 27.1449 96.1061 26.6648 98.8636 26.6648C101.67 26.6648 104.12 27.1449 106.213 28.1051C108.318 29.0653 109.955 30.401 111.125 32.1122C112.295 33.8234 112.898 35.8054 112.935 38.0582H105.271Z" fill="#3064A1"/>
</svg>
