<svg width="100" height="100" viewBox="0 0 100 100" fill="none" xmlns="http://www.w3.org/2000/svg">
<path fill-rule="evenodd" clip-rule="evenodd" d="M63.4353 45.8151C64.7045 45.4243 65.2473 43.9279 64.524 42.8143L51.5962 22.9106C50.8076 21.6965 49.0303 21.6965 48.2417 22.9106L35.3139 42.8143C34.5905 43.9279 35.1334 45.4243 36.4025 45.8151L49.3304 49.7958C49.7139 49.9139 50.124 49.9139 50.5075 49.7958L63.4353 45.8151Z" fill="#FF0000"/>
<path fill-rule="evenodd" clip-rule="evenodd" d="M33.8151 48.3907C33.4243 47.1215 31.9279 46.5786 30.8143 47.302L10.9106 60.2298C9.69647 61.0184 9.69647 62.7957 10.9106 63.5843L30.8143 76.5121C31.9279 77.2355 33.4243 76.6926 33.8151 75.4234L37.7958 62.4956C37.9139 62.1121 37.9139 61.702 37.7958 61.3185L33.8151 48.3907Z" fill="#00FF00"/>
<path fill-rule="evenodd" clip-rule="evenodd" d="M66.8464 75.4234C67.2372 76.6926 68.7336 77.2355 69.8472 76.5121L89.7509 63.5843C90.965 62.7957 90.965 61.0184 89.7509 60.2298L69.8472 47.302C68.7336 46.5786 67.2372 47.1215 66.8464 48.3907L62.8657 61.3185C62.7476 61.702 62.7476 62.1121 62.8657 62.4956L66.8464 75.4234Z" fill="#0000FF"/>
<path d="M44.884 71.0334V63.3614H42.252V61.4014H49.966V63.3614H47.32V71.0334H44.884ZM51.9797 71.0334V63.3614H49.3477V61.4014H57.0617V63.3614H54.4157V71.0334H51.9797Z" fill="black"/>
</svg>
